<svg width="32" height="32" viewBox="0 0 32 32" fill="none" xmlns="http://www.w3.org/2000/svg">
<g clip-path="url(#clip0_24_1583)">
<path d="M32 0H0V32H32V0Z" fill="black"/>
<path d="M19.7536 18.6031L23.0157 21.3781C23.6746 21.9348 24.3306 22.4949 24.9837 23.0583C24.5553 23.5457 24.1146 23.9857 23.6155 24.4011C23.3083 24.6547 22.9738 24.9208 22.6305 25.1234C22.1353 24.2485 21.6008 23.3905 21.0834 22.5285L19.1066 19.2262C19.3307 19.0318 19.5749 18.8415 19.7536 18.6031Z" fill="white"/>
<path d="M18.3934 19.648C18.4111 19.6435 18.4245 19.6489 18.442 19.6527C18.5855 19.8444 18.7002 20.0827 18.8248 20.2892L19.7308 21.8005L21.0982 24.0863C21.3877 24.5698 21.6861 25.0504 21.959 25.5434C21.7279 25.6383 21.5062 25.7644 21.2797 25.8707C20.9625 26.0195 20.637 26.1454 20.3078 26.2643C19.4397 26.5808 18.5141 26.7532 17.596 26.8363C17.5526 26.2376 17.5442 25.633 17.5173 25.033L17.2953 19.9623C17.6823 19.897 18.0282 19.7876 18.3934 19.648Z" fill="white"/>
<path d="M15.3193 19.7525C15.7062 19.9033 16.1068 19.9587 16.5161 20.0068L16.8065 26.8778C15.8796 26.8474 14.9816 26.7803 14.0809 26.5437C13.5121 26.4355 12.7975 26.1487 12.2661 25.9135C12.5334 25.3399 12.8318 24.7787 13.1139 24.2119L14.4254 21.5558C14.7232 20.9605 15.0581 20.3637 15.3193 19.7525Z" fill="white"/>
<path d="M13.404 18.2667L13.4355 18.2743C13.7427 18.7406 14.1574 19.0948 14.6146 19.407L11.5564 25.5726C10.9407 25.2006 10.3493 24.8332 9.79504 24.3719C9.56416 24.1981 9.34821 23.9885 9.14298 23.7856C8.44533 23.0959 7.86554 22.3453 7.35754 21.5063C7.72437 21.2912 8.10597 21.0979 8.4808 20.8968L10.4419 19.8456L12.3057 18.846C12.6698 18.6508 13.032 18.4463 13.404 18.2667Z" fill="white"/>
<path d="M6.13102 13.635L12.7831 15.3919C12.6937 16.1201 12.7438 16.8805 13.0469 17.5577C12.2794 17.9533 11.5221 18.3721 10.7609 18.7803C9.50137 19.4624 8.22692 20.1199 6.97492 20.8156C5.87742 18.4141 5.59294 16.2303 6.13102 13.635Z" fill="white"/>
<path d="M12.6485 5.97258L12.6804 5.97226C12.767 6.07807 13.1523 7.24239 13.2418 7.49215L14.3897 10.674C14.5999 11.2576 14.7934 11.8541 15.0251 12.4292C14.0501 12.8364 13.3872 13.692 12.9827 14.6374C12.5923 14.5008 12.1724 14.4122 11.7718 14.3072L9.61086 13.7386L7.57012 13.1975C7.16196 13.0898 6.75081 12.9654 6.3363 12.8854C6.43518 12.4828 6.60334 12.0796 6.76697 11.6993C6.80201 11.6189 6.83796 11.5389 6.87492 11.4594C6.91188 11.3799 6.9498 11.3008 6.98868 11.2222C7.02756 11.1436 7.0674 11.0654 7.1082 10.9878C7.14894 10.9102 7.19065 10.8331 7.23332 10.7564C7.27593 10.6798 7.3195 10.6037 7.36398 10.5281C7.40852 10.4525 7.4539 10.3775 7.5002 10.303C7.54649 10.2285 7.59369 10.1546 7.6418 10.0813C7.6899 10.008 7.73892 9.93525 7.78878 9.86309C7.83865 9.79093 7.88937 9.71941 7.94094 9.64853C7.99252 9.57759 8.04494 9.50735 8.09828 9.4377C8.15161 9.36805 8.20574 9.29903 8.26073 9.23071C8.31566 9.16239 8.3715 9.09471 8.42809 9.02778C8.48468 8.96079 8.54212 8.8945 8.60036 8.82895C8.65854 8.76335 8.71753 8.6985 8.77732 8.63434C8.8371 8.57018 8.89769 8.50677 8.95902 8.44405C9.02036 8.38138 9.08244 8.31941 9.14526 8.25823C9.20814 8.19711 9.27172 8.13669 9.33598 8.07706C9.40025 8.01743 9.46526 7.95855 9.53102 7.90047C9.59673 7.84245 9.66313 7.78517 9.73028 7.72869C9.79737 7.67226 9.86516 7.61663 9.93364 7.56181C10.0021 7.50703 10.0712 7.45306 10.1409 7.39994C10.2108 7.34677 10.2812 7.2945 10.3522 7.24309C10.4232 7.19167 10.4949 7.14111 10.5671 7.09146C10.6394 7.04175 10.7123 6.99295 10.7857 6.94501C10.8591 6.89711 10.9332 6.85007 11.0077 6.80394C11.0823 6.75781 11.1575 6.71263 11.2332 6.66831C11.3088 6.62399 11.3851 6.58063 11.4618 6.53818C11.5385 6.49573 11.6158 6.45418 11.6935 6.41359C11.7712 6.37301 11.8495 6.33338 11.9282 6.29471C12.0069 6.25605 12.086 6.21829 12.1656 6.18154C12.2453 6.14474 12.3253 6.10895 12.4058 6.07413C12.4863 6.0393 12.5672 6.00549 12.6485 5.97258Z" fill="white"/>
<path d="M16.2557 5.19178C17.2775 5.12395 18.3436 5.2475 19.3357 5.49297C22.2713 6.21926 24.5833 8.03947 26.1334 10.612C25.6694 10.9077 25.1756 11.167 24.6982 11.4416L22.0989 12.9328L20.1809 14.0373C19.8373 13.4891 19.4277 13.0284 18.8797 12.6757C17.937 12.069 16.8396 11.9228 15.7528 12.1557C15.5475 11.4884 15.2816 10.8298 15.0448 10.1725C14.5057 8.67659 13.9518 7.18443 13.4326 5.68155C14.3675 5.41323 15.2824 5.23486 16.2557 5.19178Z" fill="white"/>
</g>
<defs>
<clipPath id="clip0_24_1583">
<rect width="32" height="32" rx="16" fill="white"/>
</clipPath>
</defs>
</svg>
