<svg width="16" height="12" viewBox="0 0 16 12" fill="none" xmlns="http://www.w3.org/2000/svg">
<g clip-path="url(#clip0_42_1753)">
<g filter="url(#filter0_d_42_1753)">
<g clip-path="url(#clip1_42_1753)">
<rect width="16" height="12" fill="#E1E7FE"/>
<g clip-path="url(#clip2_42_1753)">
<mask id="mask0_42_1753" style="mask-type:alpha" maskUnits="userSpaceOnUse" x="-2" y="-1" width="20" height="14">
<path d="M15.5555 -1H0.444404C-0.537436 -1 -1.33337 -0.164265 -1.33337 0.866667V11.1333C-1.33337 12.1643 -0.537436 13 0.444404 13H15.5555C16.5374 13 17.3333 12.1643 17.3333 11.1333V0.866667C17.3333 -0.164265 16.5374 -1 15.5555 -1Z" fill="white"/>
</mask>
<g mask="url(#mask0_42_1753)">
<path d="M15.5555 -1H0.444404C-0.537436 -1 -1.33337 -0.164265 -1.33337 0.866667V11.1333C-1.33337 12.1643 -0.537436 13 0.444404 13H15.5555C16.5374 13 17.3333 12.1643 17.3333 11.1333V0.866667C17.3333 -0.164265 16.5374 -1 15.5555 -1Z" fill="#22438B"/>
<path fill-rule="evenodd" clip-rule="evenodd" d="M1.33324 -0.0666656L-0.467651 -0.042399L-0.44454 1.8L14.6506 12.0928L16.4612 12.0583L16.4275 10.2271L1.33324 -0.0666656Z" fill="white"/>
<path fill-rule="evenodd" clip-rule="evenodd" d="M0.444431 -0.0666656L-0.444458 0.866668L15.5555 12.0667L16.4444 11.1333L0.444431 -0.0666656Z" fill="#C7152A"/>
<path fill-rule="evenodd" clip-rule="evenodd" d="M14.6667 -0.0666656H16.4444V1.8C16.4444 1.8 5.99999 8.70293 1.34932 12.0928C1.29332 12.1339 -0.426675 12.0956 -0.426675 12.0956L-0.564453 10.3213L14.6667 -0.0666656Z" fill="white"/>
<path fill-rule="evenodd" clip-rule="evenodd" d="M15.5938 -0.0927963L16.4444 0.86667L0.444431 12.0667L-0.444458 11.1333L15.5938 -0.0927963Z" fill="#C7152A"/>
<path fill-rule="evenodd" clip-rule="evenodd" d="M5.77776 -0.0666656H10.2222V3.66667H16.4444V8.33333H10.2222V12.0667H5.77776V8.33333H-0.444458V3.66667H5.77776V-0.0666656Z" fill="white"/>
<path fill-rule="evenodd" clip-rule="evenodd" d="M6.66665 -0.0666656H9.33332V4.6H16.4444V7.4H9.33332V12.0667H6.66665V7.4H-0.444458V4.6H6.66665V-0.0666656Z" fill="#C7152A"/>
<path d="M15.5555 -0.533333H0.444417C-0.291962 -0.533333 -0.888916 0.0934685 -0.888916 0.866667V11.1333C-0.888916 11.9065 -0.291962 12.5333 0.444417 12.5333H15.5555C16.2919 12.5333 16.8889 11.9065 16.8889 11.1333V0.866667C16.8889 0.0934685 16.2919 -0.533333 15.5555 -0.533333Z" stroke="black" stroke-opacity="0.1"/>
</g>
</g>
</g>
</g>
</g>
<defs>
<filter id="filter0_d_42_1753" x="-8" y="-6" width="32" height="28" filterUnits="userSpaceOnUse" color-interpolation-filters="sRGB">
<feFlood flood-opacity="0" result="BackgroundImageFix"/>
<feColorMatrix in="SourceAlpha" type="matrix" values="0 0 0 0 0 0 0 0 0 0 0 0 0 0 0 0 0 0 127 0" result="hardAlpha"/>
<feOffset dy="2"/>
<feGaussianBlur stdDeviation="4"/>
<feColorMatrix type="matrix" values="0 0 0 0 0 0 0 0 0 0 0 0 0 0 0 0 0 0 0.06 0"/>
<feBlend mode="normal" in2="BackgroundImageFix" result="effect1_dropShadow_42_1753"/>
<feBlend mode="normal" in="SourceGraphic" in2="effect1_dropShadow_42_1753" result="shape"/>
</filter>
<clipPath id="clip0_42_1753">
<rect width="16" height="12" fill="white"/>
</clipPath>
<clipPath id="clip1_42_1753">
<rect width="16" height="12" rx="6" fill="white"/>
</clipPath>
<clipPath id="clip2_42_1753">
<rect width="18.6667" height="14" fill="white" transform="translate(-1.33337 -1)"/>
</clipPath>
</defs>
</svg>
