<svg width="16" height="17" viewBox="0 0 16 17" fill="none" xmlns="http://www.w3.org/2000/svg">
<g clip-path="url(#clip0_24_1670)">
<path fill-rule="evenodd" clip-rule="evenodd" d="M7.97616 0.663265C3.56555 0.663265 0 4.2551 0 8.69869C0 12.2507 2.28457 15.2574 5.45388 16.3216C5.85012 16.4016 5.99527 16.1487 5.99527 15.9359C5.99527 15.7496 5.9822 15.1111 5.9822 14.4458C3.76343 14.9248 3.30139 13.4879 3.30139 13.4879C2.94482 12.5567 2.41649 12.3173 2.41649 12.3173C1.69029 11.8251 2.46939 11.8251 2.46939 11.8251C3.27494 11.8783 3.69763 12.6499 3.69763 12.6499C4.41061 13.8737 5.55951 13.5279 6.02171 13.315C6.08767 12.7962 6.2991 12.437 6.52359 12.2375C4.75396 12.0512 2.89208 11.3594 2.89208 8.2729C2.89208 7.39486 3.20882 6.67649 3.71069 6.1178C3.63151 5.91829 3.35412 5.09331 3.79004 3.98914C3.79004 3.98914 4.46351 3.77624 5.98204 4.81396C6.63218 4.63807 7.30265 4.54859 7.97616 4.54784C8.64963 4.54784 9.33616 4.64106 9.97012 4.81396C11.4888 3.77624 12.1623 3.98914 12.1623 3.98914C12.5982 5.09331 12.3207 5.91829 12.2415 6.1178C12.7566 6.67649 13.0602 7.39486 13.0602 8.2729C13.0602 11.3594 11.1984 12.0378 9.41551 12.2375C9.70612 12.4902 9.9569 12.9691 9.9569 13.7274C9.9569 14.805 9.94384 15.6698 9.94384 15.9358C9.94384 16.1487 10.0891 16.4016 10.4852 16.3217C13.6545 15.2572 15.9391 12.2507 15.9391 8.69869C15.9522 4.2551 12.3736 0.663265 7.97616 0.663265Z" fill="#24292F"/>
</g>
<defs>
<clipPath id="clip0_24_1670">
<rect width="16" height="15.6735" fill="white" transform="translate(0 0.663265)"/>
</clipPath>
</defs>
</svg>
