<svg width="32" height="32" viewBox="0 0 32 32" fill="none" xmlns="http://www.w3.org/2000/svg">
<g clip-path="url(#clip0_24_1639)">
<path d="M32 0H0V32H32V0Z" fill="#EC86A0"/>
<path d="M14.3314 7.50603C14.5731 7.49504 14.806 7.50709 15.0441 7.55189C16.1971 7.76889 17.2545 8.62549 17.6604 9.73522C17.719 9.89568 17.8327 10.472 17.9266 10.5527C18.058 10.6656 18.6657 10.8603 18.8764 10.9555C18.9514 10.9894 19.0258 11.0247 19.0996 11.0612C19.1735 11.0977 19.2466 11.1355 19.3191 11.1746C19.3916 11.2137 19.4634 11.254 19.5345 11.2955C19.6056 11.3371 19.676 11.3799 19.7456 11.4239C19.8152 11.4679 19.884 11.5131 19.9521 11.5595C20.0201 11.6059 20.0874 11.6535 20.1538 11.7022C20.2202 11.751 20.2857 11.8009 20.3504 11.8519C20.4151 11.9029 20.4788 11.955 20.5417 12.0083C20.6046 12.0615 20.6665 12.1159 20.7275 12.1713C20.7884 12.2266 20.8484 12.2831 20.9074 12.3406C20.9665 12.398 21.0245 12.4565 21.0815 12.516C21.1385 12.5755 21.1944 12.636 21.2493 12.6974C21.3042 12.7589 21.358 12.8212 21.4108 12.8846C21.4635 12.9479 21.5151 13.0121 21.5656 13.0772C21.6161 13.1423 21.6654 13.2083 21.7137 13.2751C21.7619 13.3419 21.8089 13.4096 21.8548 13.478C22.0777 13.8063 22.071 13.8755 21.996 14.2685C22.1063 14.3871 22.2371 14.4889 22.3538 14.6017C22.7052 14.9415 22.9323 15.3356 23.0347 15.8143C23.2068 16.6185 23.0932 17.3339 22.6448 18.0211C22.8033 18.1572 22.9356 18.2884 22.9489 18.5114C22.9641 18.7652 22.8444 19.0652 22.7733 19.3051C22.4214 20.4934 21.9933 21.3686 21.1432 22.2832C21.1038 22.3258 21.0639 22.3679 21.0235 22.4095C20.9831 22.4511 20.9421 22.4922 20.9007 22.5328C20.8593 22.5733 20.8174 22.6134 20.775 22.6529C20.7325 22.6925 20.6896 22.7315 20.6462 22.77C20.6028 22.8084 20.5589 22.8463 20.5146 22.8837C20.4702 22.9211 20.4254 22.9579 20.3802 22.9942C20.3349 23.0304 20.2892 23.0661 20.2431 23.1013C20.197 23.1364 20.1504 23.171 20.1034 23.2049C20.0564 23.2388 20.0089 23.2722 19.9611 23.305C19.9133 23.3377 19.8651 23.37 19.8165 23.4016C19.7678 23.4331 19.7188 23.4641 19.6694 23.4944C19.62 23.5248 19.5702 23.5545 19.5201 23.5836C19.47 23.6128 19.4195 23.6412 19.3686 23.6691C19.3177 23.697 19.2666 23.7242 19.2151 23.7508C19.1635 23.7774 19.1117 23.8033 19.0595 23.8286C19.0073 23.8538 18.9549 23.8785 18.9021 23.9024C18.8493 23.9264 18.7962 23.9498 18.7428 23.9724C18.6895 23.9951 18.6359 24.0171 18.582 24.0384C18.5281 24.0597 18.4739 24.0804 18.4195 24.1003C18.365 24.1203 18.3104 24.1396 18.2555 24.1582C18.2006 24.1768 18.1455 24.1947 18.0901 24.212C18.0348 24.2292 17.9792 24.2458 17.9235 24.2616C17.8677 24.2775 17.8118 24.2926 17.7556 24.3071C17.6995 24.3215 17.6432 24.3353 17.5867 24.3483C17.5303 24.3614 17.4736 24.3737 17.4168 24.3854C17.3601 24.397 17.3031 24.4079 17.2461 24.4182C17.189 24.4284 17.1319 24.4379 17.0745 24.4467C17.0173 24.4555 16.9598 24.4636 16.9024 24.4709C16.8449 24.4783 16.7873 24.485 16.7297 24.4909C16.672 24.4968 16.6143 24.502 16.5565 24.5066C16.4987 24.511 16.4408 24.5148 16.383 24.5179C16.3251 24.5209 16.2672 24.5232 16.2093 24.5249C16.1515 24.5273 16.0936 24.529 16.0358 24.53C15.9779 24.531 15.92 24.5313 15.8622 24.5308C15.8043 24.5304 15.7465 24.5292 15.6886 24.5274C15.6308 24.5255 15.573 24.5229 15.5152 24.5196C15.4574 24.5163 15.3997 24.5122 15.3421 24.5075C15.2844 24.5027 15.2268 24.4973 15.1692 24.4911C15.1117 24.4849 15.0542 24.478 14.9969 24.4704C14.9395 24.4628 14.8823 24.4545 14.8251 24.4454C14.7679 24.4364 14.7109 24.4267 14.654 24.4162C14.5971 24.4058 14.5403 24.3946 14.4836 24.3828C14.427 24.3709 14.3705 24.3583 14.3142 24.3451C14.2579 24.3318 14.2018 24.3178 14.1458 24.3031C14.0898 24.2885 14.034 24.2731 13.9784 24.2571C13.9228 24.241 13.8674 24.2243 13.8122 24.2069C13.757 24.1894 13.7021 24.1713 13.6473 24.1525C13.5926 24.1337 13.5381 24.1142 13.4838 24.0941C13.4296 24.074 13.3756 24.0531 13.3219 24.0316C13.2681 24.0102 13.2146 23.988 13.1615 23.9652C13.1083 23.9423 13.0554 23.9189 13.0028 23.8947C12.9501 23.8706 12.8979 23.8458 12.8459 23.8204C12.7939 23.795 12.7422 23.7689 12.6909 23.7421C12.6395 23.7154 12.5885 23.6881 12.5379 23.6601C12.4872 23.6321 12.4369 23.6035 12.3869 23.5742C12.337 23.545 12.2874 23.5151 12.2382 23.4847C12.1889 23.4542 12.1401 23.4231 12.0916 23.3914C12.0432 23.3597 11.9952 23.3274 11.9475 23.2946C11.8999 23.2617 11.8526 23.2282 11.8058 23.1942C11.759 23.1601 11.7126 23.1255 11.6667 23.0902C11.6207 23.055 11.5752 23.0193 11.5302 22.9829C11.4851 22.9466 11.4404 22.9097 11.3963 22.8722C11.3522 22.8348 11.3085 22.7968 11.2653 22.7583C11.222 22.7197 11.1793 22.6807 11.1371 22.6411C10.3348 21.889 9.67319 20.9305 9.31163 19.8879C9.21655 19.6138 9.15558 19.3368 9.08692 19.0558C9.00784 18.7322 8.90633 18.4043 8.8967 18.0695C8.85332 16.5606 8.97623 15.5395 9.65175 14.1715C9.81851 13.8339 10.0171 13.4586 10.2777 13.1844C10.3952 13.0608 10.5441 12.962 10.7204 12.9635C10.8656 12.9648 10.9973 13.0426 11.0963 13.1447C11.2447 13.2977 11.3144 13.5002 11.2691 13.7115C11.2079 13.9971 10.9564 14.2632 10.8111 14.5143C10.3372 15.3341 10.0528 16.3934 10.0365 17.3337C10.0098 18.8642 10.6377 20.4277 11.698 21.5256C12.734 22.5984 14.2133 23.3486 15.7196 23.3686C17.4454 23.3914 18.8845 22.8352 20.1256 21.628C20.8447 20.861 21.4605 19.9127 21.6853 18.8697C21.5367 18.9198 21.3957 18.9864 21.2441 19.0292C20.8042 19.1534 20.26 19.1606 19.8156 19.056C19.0461 18.875 18.5176 18.3367 18.1135 17.6888C17.956 17.6853 17.8014 17.6897 17.6447 17.7074C17.1392 17.7647 16.5818 17.9497 16.1237 18.1657C15.5201 18.4505 14.4596 19.1689 14.0394 19.693C14.0499 19.7016 14.0601 19.7104 14.0707 19.7188C14.2428 19.8561 14.4734 19.9552 14.6771 20.0344C14.7075 20.0462 14.7382 20.0576 14.769 20.0686C14.7998 20.0796 14.8308 20.0901 14.8619 20.1003C14.8929 20.1104 14.9241 20.1201 14.9555 20.1294C14.9869 20.1386 15.0184 20.1475 15.05 20.1559C15.0816 20.1643 15.1133 20.1722 15.1451 20.1798C15.1769 20.1873 15.2089 20.1944 15.2409 20.2011C15.2729 20.2077 15.305 20.2139 15.3372 20.2196C15.3694 20.2254 15.4016 20.2307 15.4339 20.2356C15.4663 20.2404 15.4987 20.2449 15.5311 20.2489C15.5636 20.2528 15.5961 20.2564 15.6287 20.2594C15.6612 20.2625 15.6938 20.2651 15.7264 20.2673C15.7591 20.2695 15.7917 20.2713 15.8244 20.2725C15.8571 20.2738 15.8898 20.2746 15.9224 20.275C15.9551 20.2754 15.9878 20.2753 16.0205 20.2748C16.0532 20.2743 16.0859 20.2733 16.1186 20.2719C16.1512 20.2704 16.1839 20.2686 16.2165 20.2662C16.2491 20.2639 16.2817 20.2611 16.3142 20.2579C16.3468 20.2546 16.3793 20.251 16.4117 20.2469C16.4441 20.2427 16.4765 20.2382 16.5088 20.2332C16.5411 20.2282 16.5734 20.2227 16.6055 20.2168C16.6377 20.2109 16.6697 20.2046 16.7017 20.1978C16.7337 20.191 16.7656 20.1838 16.7974 20.176C16.8292 20.1684 16.8609 20.1602 16.8924 20.1518C16.924 20.1432 16.9554 20.1342 16.9868 20.1248C17.0181 20.1154 17.0493 20.1055 17.0803 20.0953C17.1114 20.085 17.1423 20.0743 17.173 20.0632C17.2038 20.0521 17.2344 20.0405 17.2648 20.0286C17.2952 20.0166 17.3255 20.0042 17.3556 19.9914C17.3857 19.9786 17.4156 19.9654 17.4453 19.9518C17.475 19.9381 17.5046 19.9241 17.534 19.9096C17.5633 19.8951 17.5924 19.8803 17.6214 19.8651C17.6503 19.8498 17.679 19.8342 17.7075 19.8181C18.0296 19.6381 18.4382 19.1689 18.7944 19.1441C18.9416 19.1338 19.0836 19.1894 19.1912 19.289C19.308 19.3973 19.3863 19.5572 19.3879 19.7176C19.39 19.9278 19.2722 20.1009 19.1282 20.2429C18.3313 21.0295 17.0864 21.4608 15.9818 21.4463C14.7272 21.4298 13.5212 21.0024 12.636 20.0883C12.0153 19.4472 11.5515 18.4355 11.5689 17.533C11.5726 17.3398 11.6212 17.1552 11.7681 17.0213C11.8802 16.9191 12.0307 16.8633 12.1826 16.8781C12.7657 16.935 12.7117 17.526 12.7981 17.9481C12.8575 18.238 12.9903 18.6105 13.1803 18.8391C13.4112 18.6542 13.6185 18.4362 13.8483 18.2476C14.4905 17.7205 15.2488 17.2476 16.0134 16.9229C16.3369 16.7855 16.6577 16.6866 17.0046 16.6267C17.1441 16.6025 17.7257 16.558 17.7976 16.4767C17.8376 16.4313 17.9388 15.7314 17.9993 15.5581C18.1118 15.2364 18.2986 14.9446 18.5245 14.691C19.1342 14.0066 19.7343 13.8741 20.6077 13.8245C20.6048 13.8189 20.602 13.8131 20.599 13.8075C20.496 13.6142 20.3265 13.4397 20.1749 13.284C19.53 12.6217 18.7218 12.0849 17.8384 11.8048C17.5974 12.4621 17.5118 12.8324 17.0236 13.3897C16.3671 14.139 15.5484 14.5091 14.5622 14.5703C13.6321 14.6281 12.7417 14.3306 12.0444 13.7071C11.3263 13.0651 10.9372 12.2388 10.8839 11.2804C10.8294 10.2989 11.1178 9.37831 11.7821 8.64651C12.4798 7.87783 13.3128 7.55353 14.3314 7.50603Z" fill="#FEFEFE"/>
<path d="M20.3127 15.0184C20.335 15.0158 20.3574 15.0138 20.3798 15.0122C20.4022 15.0107 20.4247 15.0097 20.4472 15.0092C20.4696 15.0087 20.4921 15.0087 20.5146 15.0093C20.537 15.0098 20.5595 15.0109 20.5819 15.0126C20.6043 15.0141 20.6266 15.0163 20.649 15.0189C20.6713 15.0215 20.6935 15.0247 20.7157 15.0284C20.7378 15.0321 20.7599 15.0363 20.7819 15.041C20.8038 15.0457 20.8257 15.0509 20.8474 15.0566C20.8692 15.0624 20.8907 15.0686 20.9121 15.0753C20.9336 15.082 20.9549 15.0893 20.976 15.097C20.9971 15.1047 21.018 15.113 21.0387 15.1216C21.0594 15.1303 21.0799 15.1395 21.1002 15.1492C21.1205 15.1588 21.1406 15.169 21.1604 15.1796C21.1802 15.1902 21.1998 15.2012 21.2191 15.2127C21.2384 15.2242 21.2575 15.2361 21.2762 15.2485C21.295 15.2609 21.3134 15.2737 21.3316 15.287C21.6436 15.5145 21.8796 15.8739 21.9355 16.2588C21.9937 16.6593 21.8852 17.094 21.6423 17.4172C21.3913 17.7513 21.0442 17.9076 20.6398 17.9665C20.2802 17.9884 19.9258 17.9231 19.625 17.7146C19.3052 17.493 19.1059 17.1369 19.0383 16.7574C18.9679 16.3616 19.0468 15.9725 19.2787 15.6424C19.5301 15.2845 19.8897 15.0929 20.3127 15.0184Z" fill="#EC86A0"/>
<path d="M14.0912 8.68882C14.127 8.68426 14.1629 8.68053 14.199 8.67762C14.235 8.6747 14.271 8.67257 14.3071 8.67132C14.3432 8.67001 14.3793 8.66954 14.4154 8.6699C14.4516 8.67029 14.4876 8.67146 14.5237 8.67349C14.5597 8.67548 14.5958 8.67829 14.6317 8.68195C14.6676 8.68562 14.7035 8.69006 14.7392 8.69532C14.7749 8.70058 14.8105 8.7067 14.846 8.7136C14.8815 8.7205 14.9168 8.72821 14.9519 8.73667C14.9869 8.74521 15.0219 8.75449 15.0565 8.76458C15.0912 8.77468 15.1257 8.78556 15.1599 8.79722C15.1941 8.80889 15.228 8.8213 15.2616 8.83452C15.2952 8.84771 15.3285 8.86169 15.3615 8.87641C15.3945 8.89113 15.4272 8.90659 15.4594 8.92281C15.4918 8.93902 15.5237 8.95594 15.5552 8.97358C15.5867 8.99125 15.6178 9.00963 15.6485 9.02869C15.6792 9.04778 15.7094 9.06755 15.7392 9.088C15.7704 9.10976 15.801 9.13226 15.8311 9.15555C15.8612 9.17888 15.8907 9.20291 15.9196 9.2277C15.9484 9.25244 15.9766 9.2779 16.0043 9.30407C16.0319 9.33027 16.0588 9.35712 16.085 9.38467C16.1113 9.41219 16.1369 9.44039 16.1617 9.46919C16.1866 9.49795 16.2107 9.52736 16.2341 9.5574C16.2575 9.58741 16.2801 9.61799 16.3019 9.64917C16.3238 9.68032 16.3448 9.71196 16.3651 9.74421C16.3854 9.77639 16.4048 9.80906 16.4235 9.84224C16.4421 9.87541 16.4599 9.90905 16.4769 9.94314C16.4939 9.97721 16.51 10.0117 16.5252 10.0466C16.5404 10.0815 16.5548 10.1167 16.5682 10.1523C16.5818 10.1879 16.5943 10.2238 16.606 10.26C16.6177 10.2962 16.6285 10.3327 16.6383 10.3695C16.6482 10.4063 16.6571 10.4433 16.6652 10.4805C16.6732 10.5177 16.6802 10.5551 16.6864 10.5926C16.7969 11.2415 16.6763 11.9049 16.2873 12.4417C15.9058 12.9683 15.3319 13.2894 14.6966 13.3939C14.0887 13.4628 13.5034 13.3278 13.0078 12.9611C12.976 12.9376 12.9448 12.9134 12.9142 12.8885C12.8837 12.8635 12.8537 12.8378 12.8244 12.8113C12.7951 12.7849 12.7664 12.7578 12.7384 12.7298C12.7105 12.702 12.6832 12.6734 12.6566 12.6442C12.6301 12.615 12.6042 12.5852 12.5792 12.5547C12.5541 12.5242 12.5297 12.493 12.5062 12.4614C12.4826 12.4297 12.4598 12.3974 12.4379 12.3646C12.4159 12.3317 12.3948 12.2984 12.3745 12.2645C12.3542 12.2306 12.3347 12.1963 12.3161 12.1615C12.2974 12.1266 12.2797 12.0913 12.2628 12.0556C12.246 12.0199 12.23 11.9837 12.2149 11.9473C12.1998 11.9108 12.1856 11.8739 12.1723 11.8367C12.1591 11.7995 12.1467 11.762 12.1353 11.7241C12.1239 11.6863 12.1134 11.6482 12.1038 11.6098C12.0943 11.5715 12.0857 11.533 12.0781 11.4942C12.0705 11.4554 12.0638 11.4165 12.0581 11.3774C12.0527 11.3381 12.0483 11.2986 12.0448 11.2591C12.0413 11.2195 12.0389 11.1799 12.0373 11.1402C12.0358 11.1005 12.0352 11.0608 12.0357 11.0211C12.0361 10.9814 12.0374 10.9418 12.0398 10.9021C12.0421 10.8625 12.0454 10.8229 12.0497 10.7834C12.054 10.744 12.0593 10.7046 12.0655 10.6654C12.0716 10.6262 12.0788 10.5872 12.0869 10.5483C12.095 10.5094 12.1041 10.4708 12.1141 10.4324C12.1241 10.3939 12.135 10.3558 12.1468 10.3179C12.1587 10.28 12.1715 10.2424 12.1852 10.2051C12.1989 10.1679 12.2135 10.1309 12.2289 10.0944C12.2444 10.0579 12.2608 10.0217 12.2781 9.98599C12.2954 9.95022 12.3135 9.91491 12.3325 9.88007C12.3515 9.84519 12.3713 9.81081 12.3919 9.77692C12.4126 9.74304 12.4341 9.70969 12.4564 9.67687C12.4787 9.64402 12.5018 9.61173 12.5257 9.58002C12.9103 9.07267 13.4654 8.77351 14.0912 8.68882Z" fill="#EC86A0"/>
</g>
<defs>
<clipPath id="clip0_24_1639">
<rect width="32" height="32" rx="16" fill="white"/>
</clipPath>
</defs>
</svg>
