<svg width="32" height="24" viewBox="0 0 32 24" fill="none" xmlns="http://www.w3.org/2000/svg">
<g clip-path="url(#clip0_42_1806)">
<g filter="url(#filter0_d_42_1806)">
<mask id="mask0_42_1806" style="mask-type:luminance" maskUnits="userSpaceOnUse" x="0" y="0" width="32" height="24">
<path d="M20 0H12C5.37258 0 0 5.37258 0 12C0 18.6274 5.37258 24 12 24H20C26.6274 24 32 18.6274 32 12C32 5.37258 26.6274 0 20 0Z" fill="white"/>
</mask>
<g mask="url(#mask0_42_1806)">
<path d="M32 0H0V24H32V0Z" fill="#E1E7FE"/>
<mask id="mask1_42_1806" style="mask-type:luminance" maskUnits="userSpaceOnUse" x="0" y="0" width="32" height="24">
<path d="M32 0H0V24H32V0Z" fill="white"/>
</mask>
<g mask="url(#mask1_42_1806)">
<mask id="mask2_42_1806" style="mask-type:alpha" maskUnits="userSpaceOnUse" x="0" y="0" width="32" height="24">
<path d="M28.9524 0H3.04762C1.36446 0 0 1.43268 0 3.2V20.8C0 22.5674 1.36446 24 3.04762 24H28.9524C30.6356 24 32 22.5674 32 20.8V3.2C32 1.43268 30.6356 0 28.9524 0Z" fill="white"/>
</mask>
<g mask="url(#mask2_42_1806)">
<path d="M28.9524 0H3.04762C1.36446 0 0 1.43268 0 3.2V20.8C0 22.5674 1.36446 24 3.04762 24H28.9524C30.6356 24 32 22.5674 32 20.8V3.2C32 1.43268 30.6356 0 28.9524 0Z" fill="white"/>
<path fill-rule="evenodd" clip-rule="evenodd" d="M0 26V16H32V26H0Z" fill="#009342"/>
<path fill-rule="evenodd" clip-rule="evenodd" d="M0 8V-2H32V8H0Z" fill="#FF6820"/>
</g>
</g>
<path d="M15.8176 8.0028C16.8678 7.96606 17.8632 8.3008 18.6518 9.003C18.6764 9.0246 18.7008 9.0466 18.7248 9.069C18.7488 9.0912 18.7724 9.1138 18.796 9.1366C18.8194 9.1596 18.8426 9.1828 18.8656 9.2062C18.8884 9.2296 18.911 9.2534 18.9334 9.2774C18.9556 9.3014 18.9776 9.3258 18.9994 9.3502C19.021 9.3748 19.0424 9.3996 19.0636 9.4248C19.0846 9.4498 19.1054 9.4752 19.126 9.5008C19.1464 9.5264 19.1666 9.5522 19.1864 9.5784C19.2062 9.6044 19.2258 9.6308 19.245 9.6574C19.2642 9.684 19.283 9.7108 19.3014 9.7378C19.32 9.7648 19.3382 9.792 19.356 9.8196C19.374 9.847 19.3914 9.8748 19.4086 9.9028C19.4258 9.9306 19.4426 9.9588 19.459 9.9872C19.4756 10.0154 19.4916 10.044 19.5074 10.0728C19.5232 10.1014 19.5386 10.1304 19.5536 10.1596C19.5688 10.1886 19.5834 10.218 19.5978 10.2474C19.6122 10.2768 19.626 10.3066 19.6398 10.3364C19.6532 10.3662 19.6666 10.3962 19.6794 10.4264C19.6922 10.4564 19.7048 10.4868 19.7168 10.5172C19.729 10.5478 19.7408 10.5784 19.7522 10.609C19.7634 10.6398 19.7744 10.6708 19.785 10.7018C19.7956 10.7328 19.8058 10.764 19.8158 10.7952C19.8256 10.8264 19.835 10.8578 19.844 10.8894C19.8532 10.9208 19.8618 10.9524 19.87 10.9842C19.8784 11.016 19.8862 11.0478 19.8938 11.0796C19.9012 11.1116 19.9084 11.1436 19.915 11.1756C19.9218 11.2078 19.928 11.24 19.934 11.2722C19.9398 11.3044 19.9454 11.3368 19.9504 11.3692C19.9556 11.4016 19.9604 11.434 19.9646 11.4664C19.969 11.499 19.9728 11.5316 19.9764 11.5642C19.9798 11.5968 19.983 11.6294 19.9858 11.662C19.9884 11.6948 19.9908 11.7274 19.9926 11.7602C19.9946 11.7928 19.9962 11.8254 19.9974 11.858C19.9986 11.8906 19.9994 11.9234 19.9998 11.956C20.0002 11.9886 20 12.0214 19.9996 12.054C19.9992 12.0866 19.9984 12.1194 19.9972 12.152C19.996 12.1846 19.9944 12.2172 19.9924 12.2498C19.9904 12.2824 19.988 12.315 19.9852 12.3476C19.9822 12.3802 19.979 12.4126 19.9754 12.4452C19.9718 12.4776 19.9678 12.51 19.9634 12.5424C19.959 12.5748 19.9542 12.607 19.949 12.6394C19.9438 12.6716 19.9382 12.7038 19.9322 12.7358C19.9262 12.768 19.9198 12.8 19.913 12.832C19.9062 12.864 19.8992 12.8958 19.8916 12.9276C19.884 12.9594 19.876 12.991 19.8678 13.0226C19.8594 13.0542 19.8506 13.0858 19.8416 13.117C19.8324 13.1484 19.823 13.1798 19.8132 13.2108C19.8032 13.242 19.793 13.273 19.7824 13.304C19.7716 13.3348 19.7606 13.3656 19.7494 13.3962C19.738 13.4268 19.7262 13.4572 19.714 13.4876C19.7018 13.518 19.6894 13.5482 19.6766 13.5782C19.6636 13.6082 19.6504 13.638 19.6368 13.6678C19.6232 13.6974 19.6092 13.727 19.5948 13.7564C19.5806 13.7856 19.5658 13.8148 19.5508 13.8438C19.5358 13.8728 19.5204 13.9016 19.5046 13.9302C19.4888 13.9588 19.4728 13.9872 19.4564 14.0156C19.4398 14.0438 19.423 14.0718 19.406 14.0996C19.3888 14.1274 19.3714 14.155 19.3536 14.1824C19.3356 14.2098 19.3176 14.2368 19.299 14.2638C19.2806 14.2908 19.2618 14.3174 19.2426 14.344C19.2236 14.3704 19.204 14.3966 19.1842 14.4226C19.1644 14.4486 19.1444 14.4744 19.124 14.5C19.1036 14.5254 19.0828 14.5506 19.0618 14.5756C19.0408 14.6006 19.0194 14.6254 18.9978 14.6498C18.2632 15.4734 17.2894 15.9342 16.1892 15.9972C16.012 16.0022 15.8346 16.0018 15.6576 15.9866C15.63 15.9844 15.6024 15.9816 15.5746 15.9788C15.547 15.9758 15.5194 15.9726 15.4918 15.969C15.4642 15.9656 15.4368 15.9618 15.4092 15.9576C15.3818 15.9536 15.3544 15.9492 15.327 15.9446C15.2996 15.9398 15.2722 15.9348 15.2448 15.9296C15.2176 15.9244 15.1904 15.9188 15.1632 15.913C15.136 15.9072 15.1088 15.9012 15.0818 15.8948C15.0548 15.8884 15.0278 15.8818 15.0008 15.8748C14.974 15.868 14.947 15.8608 14.9204 15.8532C14.8936 15.8458 14.8668 15.838 14.8402 15.83C14.8136 15.8218 14.7872 15.8136 14.7608 15.805C14.7342 15.7964 14.708 15.7874 14.6816 15.7782C14.6554 15.7692 14.6294 15.7596 14.6032 15.75C14.5772 15.7402 14.5512 15.7304 14.5254 15.72C14.4996 15.7098 14.4738 15.6994 14.4482 15.6886C14.4226 15.6778 14.3972 15.6668 14.3718 15.6554C14.3464 15.644 14.321 15.6324 14.296 15.6206C14.2708 15.6088 14.2458 15.5968 14.2208 15.5844C14.196 15.572 14.1712 15.5594 14.1466 15.5464C14.122 15.5336 14.0974 15.5204 14.073 15.507C14.0488 15.4936 14.0244 15.48 14.0004 15.4662C13.9764 15.4522 13.9524 15.438 13.9286 15.4236C13.9048 15.4092 13.8812 15.3946 13.8578 15.3798C13.8342 15.3648 13.811 15.3498 13.7878 15.3344C13.7646 15.319 13.7416 15.3034 13.7188 15.2874C13.696 15.2716 13.6734 15.2556 13.6508 15.2392C13.6284 15.2228 13.606 15.2062 13.5838 15.1894C13.5618 15.1726 13.5398 15.1556 13.518 15.1384C13.4962 15.1212 13.4746 15.1036 13.4532 15.086C13.4318 15.0682 13.4104 15.0504 13.3894 15.0322C13.3684 15.014 13.3474 14.9956 13.3268 14.977C13.3062 14.9584 13.2856 14.9396 13.2654 14.9206C13.2418 14.8986 13.2186 14.8764 13.1956 14.8538C13.1726 14.8312 13.15 14.8084 13.1276 14.7852C13.105 14.762 13.083 14.7386 13.061 14.715C13.0392 14.6914 13.0176 14.6674 12.9964 14.6432C12.975 14.619 12.954 14.5946 12.9334 14.5698C12.9126 14.5452 12.8922 14.5202 12.8722 14.495C12.852 14.4698 12.8322 14.4444 12.8128 14.4188C12.7934 14.3932 12.7742 14.3672 12.7554 14.341C12.7364 14.315 12.718 14.2886 12.6998 14.262C12.6816 14.2354 12.6636 14.2086 12.646 14.1816C12.6286 14.1546 12.6112 14.1274 12.5944 14.1C12.5774 14.0726 12.5608 14.0448 12.5446 14.017C12.5284 13.9892 12.5126 13.9612 12.497 13.933C12.4814 13.9048 12.4662 13.8764 12.4514 13.8478C12.4364 13.8192 12.422 13.7904 12.4078 13.7614C12.3936 13.7326 12.3798 13.7034 12.3662 13.6742C12.3528 13.6448 12.3396 13.6154 12.327 13.5858C12.3142 13.5562 12.3018 13.5266 12.2898 13.4966C12.2776 13.4668 12.266 13.4368 12.2546 13.4066C12.2434 13.3764 12.2324 13.346 12.2218 13.3156C12.2112 13.2852 12.201 13.2546 12.1912 13.224C12.1814 13.1932 12.172 13.1624 12.1628 13.1316C12.1538 13.1006 12.145 13.0696 12.1366 13.0384C12.1284 13.0074 12.1204 12.9762 12.1128 12.9448C12.1052 12.9134 12.098 12.882 12.0912 12.8506C12.0844 12.819 12.0778 12.7874 12.0718 12.7558C12.0658 12.7242 12.06 12.6924 12.0548 12.6606C12.0494 12.6288 12.0446 12.597 12.04 12.5652C12.0354 12.5332 12.0314 12.5012 12.0276 12.4692C12.0238 12.4372 12.0204 12.4052 12.0176 12.3732C12.0146 12.341 12.012 12.309 12.0098 12.2768C12.0076 12.2446 12.0058 12.2124 12.0044 12.1802C12.0028 12.147 12.0016 12.1136 12.001 12.0804C12.0002 12.047 12 12.0138 12 11.9804C12.0002 11.9472 12.0006 11.9138 12.0016 11.8806C12.0026 11.8472 12.004 11.814 12.0058 11.7806C12.0076 11.7474 12.0098 11.7142 12.0124 11.681C12.015 11.6478 12.018 11.6146 12.0214 11.5814C12.0248 11.5482 12.0288 11.5152 12.033 11.4822C12.0374 11.4492 12.042 11.4162 12.047 11.3832C12.0522 11.3502 12.0578 11.3174 12.0636 11.2846C12.0696 11.2518 12.0758 11.2192 12.0826 11.1866C12.0894 11.154 12.0964 11.1214 12.104 11.089C12.1116 11.0564 12.1196 11.0242 12.128 10.9918C12.1362 10.9596 12.145 10.9274 12.1542 10.8954C12.1634 10.8634 12.173 10.8316 12.183 10.7998C12.1928 10.768 12.2032 10.7362 12.214 10.7048C12.2248 10.6732 12.236 10.6418 12.2474 10.6106C12.259 10.5794 12.271 10.5482 12.2832 10.5172C12.2956 10.4864 12.3082 10.4556 12.3214 10.425C12.3344 10.3942 12.348 10.3638 12.3618 10.3336C12.3756 10.3032 12.3898 10.2732 12.4044 10.2432C12.419 10.2132 12.434 10.1834 12.4494 10.154C12.4648 10.1244 12.4804 10.095 12.4966 10.0658C12.5126 10.0366 12.529 10.0076 12.5458 9.979C12.5626 9.9502 12.5798 9.9216 12.5974 9.8932C12.6148 9.865 12.6328 9.8368 12.651 9.809C12.6692 9.781 12.6878 9.7534 12.7068 9.726C12.7256 9.6986 12.7448 9.6714 12.7644 9.6444C12.784 9.6176 12.804 9.5908 12.8242 9.5644C12.8446 9.538 12.8652 9.5118 12.886 9.4858C12.907 9.46 12.9282 9.4344 12.9498 9.409C12.9714 9.3836 12.9932 9.3584 13.0154 9.3336C13.0376 9.3088 13.06 9.2842 13.0828 9.2598C13.1048 9.2364 13.1272 9.2132 13.1496 9.1904C13.1722 9.1674 13.195 9.1448 13.2182 9.1224C13.2412 9.1 13.2646 9.078 13.2882 9.0562C13.3118 9.0342 13.3358 9.0128 13.36 8.9916C13.384 8.9704 13.4084 8.9494 13.4332 8.9288C13.4578 8.908 13.4826 8.8878 13.5078 8.8678C13.533 8.8476 13.5584 8.828 13.584 8.8086C13.6096 8.7892 13.6354 8.77 13.6616 8.7512C13.6876 8.7324 13.714 8.714 13.7404 8.6958C13.767 8.6776 13.7938 8.6598 13.8206 8.6422C13.8476 8.6248 13.8748 8.6076 13.9022 8.5908C13.9296 8.5738 13.9572 8.5574 13.985 8.5412C14.0128 8.525 14.0408 8.509 14.0688 8.4936C14.097 8.478 14.1254 8.463 14.1538 8.448C14.1824 8.4332 14.2112 8.4188 14.24 8.4046C14.2688 8.3906 14.298 8.3768 14.3272 8.3632C14.3564 8.3498 14.3858 8.3368 14.4152 8.324C14.4448 8.3114 14.4744 8.299 14.5042 8.287C14.5342 8.275 14.564 8.2634 14.5942 8.252C14.6242 8.2408 14.6546 8.23 14.6848 8.2194C14.7152 8.2088 14.7458 8.1986 14.7764 8.1888C14.807 8.179 14.8378 8.1696 14.8686 8.1606C14.8994 8.1514 14.9304 8.1428 14.9614 8.1344C14.9924 8.1262 15.0236 8.1182 15.0548 8.1106C15.0862 8.1032 15.1174 8.096 15.1488 8.0892C15.1804 8.0824 15.2118 8.0758 15.2434 8.0698C15.275 8.0638 15.3066 8.0582 15.3384 8.0528C15.37 8.0476 15.4018 8.0428 15.4336 8.0382C15.4654 8.0338 15.4974 8.0296 15.5292 8.0258C15.5612 8.0222 15.5932 8.0188 15.6252 8.0158C15.6572 8.0128 15.6892 8.0102 15.7214 8.0082C15.7534 8.006 15.7854 8.0042 15.8176 8.0028ZM15.928 8.5432C15.8528 8.5468 15.7774 8.5516 15.7022 8.5536C15.7022 8.6002 15.6904 8.644 15.6568 8.678C15.6532 8.6816 15.6494 8.685 15.6454 8.6882C15.6414 8.6914 15.6372 8.6944 15.633 8.6972C15.6288 8.7 15.6244 8.7026 15.6198 8.705C15.6152 8.7074 15.6106 8.7096 15.606 8.7114C15.6012 8.7134 15.5964 8.7152 15.5914 8.7166C15.5866 8.718 15.5816 8.7192 15.5766 8.7202C15.5716 8.7212 15.5666 8.722 15.5614 8.7224C15.5564 8.7228 15.5512 8.723 15.5462 8.723C15.541 8.723 15.536 8.7226 15.531 8.722C15.526 8.7214 15.521 8.7206 15.516 8.7196C15.5112 8.7184 15.5062 8.717 15.5014 8.7154C15.4966 8.7138 15.492 8.712 15.4874 8.71C15.4828 8.708 15.4782 8.7056 15.4738 8.7032C15.4694 8.7006 15.4652 8.6978 15.4612 8.695C15.457 8.692 15.453 8.6888 15.4492 8.6856C15.4454 8.6822 15.4418 8.6786 15.4384 8.675C15.4162 8.6514 15.4034 8.6242 15.396 8.593C15.3374 8.61 15.2762 8.6186 15.2166 8.6322C15.0838 8.6622 14.9462 8.699 14.8198 8.7502C14.8316 8.7978 14.8336 8.8396 14.807 8.8832C14.8044 8.8876 14.8016 8.8918 14.7984 8.8958C14.7954 8.8998 14.7922 8.9038 14.7886 8.9074C14.7852 8.9112 14.7816 8.9146 14.7778 8.918C14.774 8.9214 14.77 8.9246 14.766 8.9274C14.7618 8.9304 14.7576 8.9332 14.7532 8.9356C14.7488 8.9382 14.7444 8.9406 14.7398 8.9426C14.735 8.9448 14.7304 8.9466 14.7256 8.9482C14.7208 8.9498 14.716 8.9512 14.711 8.9524C14.706 8.9536 14.701 8.9544 14.696 8.9552C14.691 8.9558 14.686 8.9562 14.6808 8.9564C14.6758 8.9566 14.6706 8.9564 14.6656 8.9562C14.6606 8.9558 14.6554 8.9552 14.6504 8.9542C14.6454 8.9534 14.6406 8.9522 14.6356 8.9508C14.6308 8.9494 14.626 8.9478 14.6212 8.9458C14.6164 8.944 14.6118 8.9418 14.6074 8.9394C14.6028 8.9372 14.5984 8.9346 14.5942 8.9318C14.568 8.9146 14.5516 8.8932 14.5366 8.8662C14.3562 8.9558 14.1834 9.0522 14.018 9.1676C14.0422 9.2028 14.0534 9.2402 14.0456 9.283C14.0448 9.288 14.0436 9.2928 14.0422 9.2978C14.0408 9.3026 14.0392 9.3074 14.0372 9.312C14.0354 9.3166 14.0332 9.3212 14.031 9.3258C14.0286 9.3302 14.026 9.3346 14.0232 9.3388C14.0206 9.343 14.0176 9.347 14.0144 9.351C14.0112 9.3548 14.0078 9.3586 14.0042 9.3622C14.0006 9.3658 13.997 9.369 13.993 9.3722C13.9892 9.3754 13.985 9.3784 13.9808 9.3812C13.9766 9.384 13.9724 9.3866 13.968 9.389C13.9634 9.3914 13.959 9.3936 13.9542 9.3956C13.9496 9.3974 13.9448 9.3992 13.94 9.4006C13.9352 9.4022 13.9302 9.4034 13.9254 9.4044C13.9204 9.4054 13.9154 9.406 13.9104 9.4066C13.9054 9.407 13.9002 9.4072 13.8952 9.4072C13.8902 9.4072 13.8852 9.407 13.8802 9.4064C13.8752 9.406 13.8702 9.4052 13.8652 9.4042C13.8288 9.3966 13.8028 9.3784 13.7762 9.3536C13.6194 9.4794 13.4884 9.6294 13.3522 9.7758C13.385 9.8058 13.407 9.8386 13.4096 9.8846C13.4098 9.8898 13.4098 9.8948 13.4096 9.9C13.4094 9.905 13.4088 9.91 13.4082 9.9152C13.4074 9.9202 13.4064 9.9252 13.4052 9.93C13.404 9.935 13.4024 9.94 13.4008 9.9448C13.399 9.9496 13.397 9.9542 13.3948 9.9588C13.3926 9.9634 13.3902 9.968 13.3876 9.9722C13.385 9.9766 13.3822 9.9808 13.3792 9.985C13.3762 9.989 13.373 9.993 13.3694 9.9968C13.3662 10.0004 13.3626 10.004 13.3588 10.0074C13.3552 10.0106 13.3512 10.0138 13.3472 10.0168C13.3432 10.0198 13.339 10.0224 13.3348 10.025C13.3304 10.0276 13.326 10.03 13.3216 10.032C13.317 10.0342 13.3124 10.036 13.3076 10.0376C13.303 10.0394 13.2982 10.0408 13.2932 10.042C13.2884 10.0432 13.2834 10.044 13.2786 10.0448C13.2736 10.0454 13.2686 10.0458 13.2636 10.0462C13.228 10.0474 13.1988 10.0356 13.168 10.0196C13.0968 10.1098 12.9088 10.4226 12.871 10.532C12.874 10.5412 12.8712 10.538 12.8782 10.542C12.9142 10.5628 12.9426 10.5932 12.953 10.6344C12.9542 10.6398 12.9554 10.645 12.9562 10.6506C12.957 10.656 12.9574 10.6614 12.9576 10.6668C12.9578 10.6724 12.9578 10.6778 12.9576 10.6832C12.9572 10.6888 12.9566 10.6942 12.9556 10.6996C12.9548 10.705 12.9536 10.7104 12.9522 10.7156C12.9508 10.721 12.949 10.7262 12.947 10.7312C12.945 10.7364 12.9428 10.7414 12.9404 10.7462C12.9378 10.751 12.9352 10.7558 12.9322 10.7604C12.909 10.7956 12.8748 10.8178 12.8334 10.825C12.8046 10.83 12.7788 10.8256 12.7508 10.8194C12.7108 10.9346 12.6738 11.0504 12.6452 11.169C12.6268 11.2448 12.615 11.3232 12.5938 11.398C12.6368 11.406 12.6756 11.4274 12.701 11.4642C12.7234 11.497 12.7304 11.5388 12.7222 11.5776C12.7212 11.5826 12.7198 11.5876 12.7184 11.5924C12.7168 11.5974 12.715 11.6022 12.713 11.6068C12.7108 11.6116 12.7086 11.6162 12.7062 11.6206C12.7036 11.625 12.701 11.6294 12.698 11.6336C12.695 11.6378 12.692 11.642 12.6886 11.6458C12.6852 11.6498 12.6818 11.6534 12.678 11.657C12.6744 11.6606 12.6706 11.6638 12.6664 11.667C12.6624 11.6702 12.6582 11.6732 12.654 11.676C12.6228 11.6954 12.5928 11.7004 12.557 11.701C12.543 11.9 12.5426 12.0992 12.5562 12.2984C12.6056 12.2996 12.6496 12.3102 12.6848 12.3478C12.7132 12.3782 12.727 12.4184 12.7248 12.4598C12.7244 12.465 12.724 12.47 12.7232 12.475C12.7224 12.48 12.7212 12.4848 12.72 12.4898C12.7186 12.4946 12.7172 12.4994 12.7154 12.5042C12.7136 12.509 12.7116 12.5136 12.7092 12.518C12.707 12.5226 12.7046 12.527 12.7018 12.5312C12.6992 12.5356 12.6962 12.5398 12.693 12.5436C12.69 12.5476 12.6866 12.5514 12.6832 12.5552C12.6796 12.5588 12.676 12.5622 12.672 12.5654C12.6512 12.5834 12.6294 12.5938 12.6034 12.601L12.598 12.6026L12.5946 12.6036C12.621 12.7058 12.6378 12.8104 12.6654 12.9126C12.69 13.0032 12.7268 13.0912 12.7502 13.1816C12.7952 13.169 12.8374 13.1674 12.8798 13.1902C12.8844 13.1926 12.8888 13.1952 12.893 13.1982C12.8972 13.201 12.9012 13.204 12.9052 13.2074C12.909 13.2106 12.9128 13.214 12.9164 13.2178C12.9198 13.2214 12.9232 13.2252 12.9264 13.2292C12.9296 13.2332 12.9324 13.2374 12.9352 13.2416C12.938 13.246 12.9404 13.2504 12.9426 13.255C12.9448 13.2596 12.947 13.2642 12.9486 13.269C12.9504 13.2738 12.952 13.2786 12.9532 13.2836C12.9546 13.2886 12.9556 13.2936 12.9564 13.2986C12.9572 13.3036 12.9576 13.3088 12.958 13.3138C12.9582 13.319 12.9584 13.324 12.958 13.3292C12.9578 13.3342 12.9574 13.3394 12.9566 13.3444C12.956 13.3494 12.955 13.3544 12.9538 13.3594C12.9524 13.3644 12.951 13.3692 12.9492 13.3742C12.9476 13.379 12.9456 13.3836 12.9434 13.3882C12.9412 13.3928 12.9388 13.3974 12.9362 13.4018C12.9188 13.4304 12.8954 13.4482 12.867 13.465C12.9184 13.5604 12.9646 13.6598 13.0208 13.7526C13.065 13.8256 13.1316 13.9122 13.1672 13.9846C13.2036 13.959 13.2422 13.9466 13.287 13.9554C13.292 13.9564 13.297 13.9576 13.3018 13.959C13.3068 13.9606 13.3116 13.9624 13.3162 13.9642C13.321 13.9662 13.3256 13.9684 13.33 13.971C13.3344 13.9734 13.3388 13.976 13.343 13.979C13.3472 13.9818 13.3512 13.985 13.3552 13.9882C13.359 13.9916 13.3628 13.995 13.3664 13.9986C13.3698 14.0024 13.3732 14.0062 13.3764 14.0102C13.3796 14.0142 13.3824 14.0184 13.3852 14.0228C13.388 14.027 13.3904 14.0314 13.3928 14.0358C13.3952 14.0404 13.3972 14.045 13.399 14.0496C13.401 14.0544 13.4026 14.0592 13.4038 14.064C13.4052 14.069 13.4064 14.0738 13.4072 14.0788C13.408 14.0838 13.4086 14.0888 13.409 14.094C13.4094 14.099 13.4094 14.104 13.4094 14.1092C13.4092 14.1142 13.4088 14.1192 13.408 14.1242C13.4074 14.1292 13.4064 14.1342 13.4052 14.1392C13.3968 14.1744 13.3778 14.2018 13.352 14.2266C13.4182 14.2906 13.4766 14.3624 13.5406 14.4284C13.6152 14.5058 13.6968 14.5776 13.7774 14.6484C13.8088 14.6148 13.8428 14.5928 13.8906 14.5916C13.8956 14.5914 13.9008 14.5916 13.9058 14.592C13.911 14.5924 13.916 14.593 13.921 14.594C13.926 14.5948 13.931 14.596 13.9358 14.5974C13.9408 14.5988 13.9456 14.6004 13.9504 14.6022C13.9552 14.604 13.9598 14.6062 13.9644 14.6084C13.9688 14.6108 13.9734 14.6132 13.9776 14.616C13.982 14.6186 13.9862 14.6216 13.9902 14.6248C13.9942 14.6278 13.998 14.6312 14.0018 14.6348C14.0054 14.6382 14.0088 14.6418 14.012 14.6456C14.0154 14.6494 14.0184 14.6534 14.0212 14.6574C14.0242 14.6616 14.0268 14.6658 14.0292 14.6702C14.0316 14.6746 14.0338 14.679 14.0358 14.6836C14.0378 14.6882 14.0396 14.6928 14.041 14.6976C14.0426 14.7024 14.0438 14.7072 14.0448 14.7122C14.0458 14.717 14.0466 14.722 14.047 14.727C14.0476 14.732 14.0478 14.737 14.0478 14.742C14.0476 14.7766 14.0362 14.8052 14.0186 14.8344C14.1142 14.8966 14.2096 14.961 14.3096 15.016C14.3838 15.0568 14.4652 15.09 14.5368 15.1346C14.5566 15.096 14.5846 15.0658 14.6266 15.0514C14.6662 15.0378 14.7108 15.042 14.7478 15.0608C14.7522 15.0632 14.7568 15.0656 14.761 15.0684C14.7652 15.071 14.7694 15.074 14.7734 15.077C14.7774 15.0802 14.7812 15.0836 14.7848 15.087C14.7884 15.0906 14.7918 15.0944 14.7952 15.0982C14.7984 15.102 14.8014 15.1062 14.8042 15.1104C14.8072 15.1146 14.8098 15.1188 14.8122 15.1232C14.8146 15.1278 14.8168 15.1324 14.8186 15.137C14.8206 15.1418 14.8222 15.1464 14.8238 15.1514C14.8338 15.1856 14.83 15.218 14.8174 15.251C14.9076 15.2768 14.995 15.3102 15.0856 15.335C15.1886 15.363 15.2934 15.3816 15.3972 15.4066C15.408 15.3616 15.4288 15.3236 15.4692 15.2984C15.4736 15.2958 15.478 15.2934 15.4826 15.2912C15.4872 15.2888 15.492 15.287 15.4968 15.2852C15.5016 15.2834 15.5064 15.282 15.5114 15.2808C15.5162 15.2796 15.5212 15.2786 15.5264 15.2778C15.5314 15.277 15.5364 15.2766 15.5416 15.2764C15.5466 15.2762 15.5518 15.2762 15.5568 15.2766C15.562 15.2768 15.567 15.2774 15.572 15.2782C15.577 15.2792 15.582 15.2802 15.587 15.2816C15.592 15.2828 15.5968 15.2844 15.6016 15.2862C15.6064 15.288 15.6112 15.29 15.6158 15.2922C15.6204 15.2946 15.625 15.297 15.6294 15.2998C15.6336 15.3024 15.638 15.3054 15.642 15.3086C15.646 15.3116 15.65 15.315 15.6538 15.3186C15.6574 15.322 15.661 15.3258 15.6644 15.3296C15.6678 15.3336 15.671 15.3376 15.674 15.3418C15.677 15.346 15.6796 15.3504 15.6822 15.3548C15.6988 15.384 15.7008 15.4132 15.7026 15.4458C15.8306 15.453 15.9606 15.462 16.0886 15.4552L16.2982 15.4458C16.299 15.3966 16.3086 15.355 16.3456 15.3194C16.3492 15.3158 16.353 15.3126 16.357 15.3094C16.361 15.3062 16.3652 15.3032 16.3694 15.3006C16.3738 15.2978 16.3782 15.2952 16.3828 15.293C16.3872 15.2906 16.3918 15.2886 16.3966 15.2868C16.4014 15.285 16.4062 15.2834 16.411 15.282C16.416 15.2806 16.421 15.2796 16.426 15.2788C16.431 15.2778 16.436 15.2772 16.441 15.277C16.4462 15.2766 16.4512 15.2766 16.4562 15.2766C16.4612 15.2768 16.4662 15.2772 16.4712 15.2778C16.4762 15.2784 16.481 15.2792 16.486 15.2804C16.4908 15.2814 16.4956 15.2828 16.5004 15.2844C16.505 15.286 16.5098 15.2878 16.5144 15.2898C16.5188 15.2918 16.5234 15.294 16.5276 15.2966C16.532 15.299 16.5362 15.3018 16.5402 15.3046C16.5442 15.3076 16.5482 15.3106 16.552 15.314C16.5556 15.3172 16.5592 15.3208 16.5626 15.3244C16.5854 15.3488 16.5978 15.3742 16.6024 15.4068C16.806 15.3612 16.9834 15.3186 17.1812 15.2498C17.167 15.2058 17.1654 15.1658 17.1878 15.1238C17.1902 15.1194 17.1928 15.115 17.1956 15.1108C17.1984 15.1066 17.2014 15.1024 17.2048 15.0986C17.208 15.0946 17.2114 15.0908 17.215 15.0872C17.2186 15.0836 17.2224 15.0804 17.2264 15.0772C17.2304 15.074 17.2344 15.071 17.2388 15.0682C17.243 15.0654 17.2474 15.0628 17.252 15.0604C17.2564 15.0582 17.261 15.056 17.2658 15.0542C17.2704 15.0522 17.2754 15.0506 17.2802 15.0492C17.2852 15.0478 17.2902 15.0466 17.2952 15.0458C17.3002 15.0448 17.3052 15.0442 17.3104 15.0438C17.3154 15.0434 17.3206 15.0432 17.3256 15.0434C17.3308 15.0434 17.336 15.0438 17.341 15.0444C17.346 15.045 17.3512 15.0458 17.3562 15.047C17.3612 15.048 17.366 15.0494 17.371 15.051C17.3758 15.0526 17.3806 15.0544 17.3852 15.0564C17.39 15.0584 17.3946 15.0608 17.399 15.0632C17.429 15.0802 17.4502 15.1054 17.4646 15.1362C17.5482 15.0846 17.6392 15.0444 17.7246 14.9958C17.8126 14.9454 17.8952 14.8872 17.981 14.8336C17.9576 14.792 17.944 14.7508 17.9574 14.703C17.9588 14.6982 17.9604 14.6934 17.9622 14.6886C17.964 14.6838 17.9662 14.6792 17.9686 14.6748C17.9708 14.6702 17.9734 14.6658 17.9762 14.6616C17.9788 14.6574 17.9818 14.6532 17.985 14.6492C17.9882 14.6454 17.9916 14.6416 17.9952 14.638C17.9986 14.6342 18.0024 14.6308 18.0062 14.6276C18.0102 14.6244 18.0142 14.6212 18.0184 14.6184C18.0226 14.6156 18.027 14.613 18.0314 14.6106C18.0358 14.608 18.0402 14.6058 18.0448 14.604C18.0494 14.602 18.054 14.6002 18.0588 14.5986C18.0636 14.5972 18.0684 14.596 18.0732 14.595C18.0782 14.5938 18.0832 14.5932 18.088 14.5926C18.093 14.592 18.098 14.5918 18.103 14.5918C18.108 14.5918 18.113 14.592 18.118 14.5924C18.123 14.593 18.1278 14.5936 18.1328 14.5946C18.1376 14.5956 18.1424 14.5968 18.1472 14.5984C18.1794 14.608 18.2016 14.6248 18.2248 14.6478C18.3388 14.5404 18.4528 14.4384 18.5584 14.3222C18.5874 14.2902 18.6182 14.2588 18.6442 14.2244C18.6118 14.1866 18.5872 14.1466 18.5908 14.0946C18.5912 14.0896 18.592 14.0846 18.5928 14.0796C18.5936 14.0746 18.5948 14.0696 18.5962 14.0648C18.5976 14.0598 18.5992 14.055 18.601 14.0504C18.6028 14.0456 18.605 14.041 18.6072 14.0364C18.6094 14.032 18.612 14.0276 18.6148 14.0232C18.6174 14.019 18.6204 14.0148 18.6234 14.0108C18.6266 14.007 18.63 14.003 18.6334 13.9994C18.637 13.9958 18.6406 13.9922 18.6444 13.989C18.6482 13.9858 18.6522 13.9828 18.6562 13.9798C18.6602 13.977 18.6644 13.9744 18.6688 13.972C18.6732 13.9696 18.6776 13.9674 18.6822 13.9654C18.6866 13.9634 18.6914 13.9618 18.696 13.9602C18.7008 13.9588 18.7056 13.9576 18.7104 13.9564C18.7152 13.9554 18.7202 13.9548 18.725 13.9542C18.73 13.9536 18.735 13.9534 18.7398 13.9534C18.7448 13.9534 18.7498 13.9536 18.7548 13.954C18.7844 13.9566 18.8076 13.9676 18.8334 13.9812C18.8966 13.8842 18.9602 13.7882 19.0162 13.6868C19.0562 13.6144 19.0898 13.5354 19.1328 13.465C19.0924 13.4412 19.0596 13.4096 19.0468 13.3628C19.0356 13.3216 19.045 13.2734 19.067 13.2372C19.0866 13.2052 19.1178 13.1858 19.1538 13.1774C19.1726 13.173 19.2418 13.1808 19.2484 13.1726C19.2622 13.155 19.2706 13.1174 19.2778 13.0956C19.311 12.9964 19.3394 12.8956 19.363 12.7936C19.3776 12.7306 19.3866 12.6638 19.4052 12.6022C19.36 12.5926 19.3226 12.5706 19.2974 12.5308C19.2946 12.5266 19.2922 12.5222 19.29 12.5176C19.2878 12.5132 19.2858 12.5086 19.284 12.5038C19.2822 12.4992 19.2806 12.4944 19.2794 12.4896C19.2782 12.4848 19.2772 12.4798 19.2764 12.4748C19.2756 12.4698 19.275 12.465 19.2748 12.46C19.2746 12.455 19.2744 12.4498 19.2748 12.4448C19.275 12.4398 19.2754 12.4348 19.2762 12.43C19.277 12.425 19.278 12.42 19.2792 12.4152C19.2804 12.4102 19.282 12.4054 19.2836 12.4006C19.2854 12.3958 19.2874 12.3912 19.2896 12.3866C19.2918 12.382 19.2942 12.3774 19.2968 12.3732C19.2994 12.3688 19.3024 12.3646 19.3054 12.3604C19.3084 12.3564 19.3116 12.3526 19.3152 12.3488C19.3186 12.345 19.3222 12.3414 19.326 12.338C19.3298 12.3346 19.3338 12.3314 19.338 12.3284C19.342 12.3256 19.3462 12.3228 19.3506 12.3202C19.3814 12.3024 19.4096 12.2996 19.444 12.2984C19.45 12.1598 19.4544 12.0228 19.4522 11.884C19.4512 11.8228 19.4448 11.7616 19.4442 11.7004C19.3954 11.7002 19.3532 11.69 19.318 11.6536C19.3144 11.65 19.3112 11.6462 19.308 11.6422C19.305 11.6384 19.302 11.6342 19.2992 11.63C19.2966 11.6258 19.294 11.6214 19.2918 11.617C19.2894 11.6124 19.2874 11.6078 19.2856 11.6032C19.2838 11.5986 19.2822 11.5938 19.2808 11.589C19.2794 11.5842 19.2782 11.5792 19.2774 11.5742C19.2764 11.5694 19.2758 11.5644 19.2754 11.5594C19.275 11.5544 19.2748 11.5492 19.275 11.5442C19.275 11.5392 19.2754 11.5342 19.276 11.5292C19.2766 11.5242 19.2776 11.5192 19.2786 11.5144C19.2798 11.5094 19.281 11.5046 19.2826 11.4998C19.2842 11.495 19.2862 11.4904 19.2882 11.4858C19.2902 11.4812 19.2926 11.4768 19.295 11.4724C19.2976 11.468 19.3004 11.4638 19.3032 11.4596C19.3062 11.4556 19.3094 11.4516 19.3128 11.448C19.316 11.4442 19.3196 11.4406 19.3232 11.4372C19.3478 11.4144 19.3736 11.4046 19.4052 11.3962C19.3634 11.1984 19.3146 11.0088 19.249 10.8174C19.2072 10.8308 19.1684 10.8332 19.1276 10.8134C19.123 10.8112 19.1186 10.8088 19.1142 10.806C19.1098 10.8034 19.1056 10.8004 19.1016 10.7974C19.0976 10.7942 19.0936 10.791 19.09 10.7874C19.0862 10.784 19.0826 10.7802 19.0794 10.7764C19.076 10.7726 19.0728 10.7686 19.07 10.7644C19.067 10.7602 19.0642 10.7558 19.0618 10.7514C19.0592 10.747 19.057 10.7424 19.055 10.7376C19.053 10.733 19.0512 10.7282 19.0496 10.7234C19.048 10.7186 19.0466 10.7136 19.0456 10.7088C19.0446 10.7038 19.0436 10.6988 19.043 10.6938C19.0424 10.6888 19.0422 10.6838 19.042 10.6788C19.042 10.6736 19.0422 10.6686 19.0426 10.6636C19.043 10.6586 19.0436 10.6536 19.0446 10.6486C19.0454 10.6436 19.0466 10.6388 19.048 10.6338C19.0494 10.629 19.051 10.6242 19.053 10.6196C19.0548 10.6148 19.057 10.6102 19.0592 10.6058C19.0766 10.5728 19.1018 10.5526 19.133 10.5338C19.0922 10.4574 19.0544 10.3796 19.012 10.3042C18.9562 10.2066 18.8964 10.1116 18.8326 10.0188C18.79 10.0412 18.748 10.0544 18.7 10.0404C18.66 10.0288 18.6266 9.9998 18.6074 9.963C18.5884 9.9266 18.5844 9.8846 18.598 9.8458C18.6078 9.8176 18.624 9.7944 18.6456 9.7742C18.5726 9.6918 18.4998 9.6094 18.421 9.5324C18.3572 9.47 18.289 9.4128 18.2246 9.3514C18.1928 9.3854 18.1544 9.4068 18.1068 9.4076C18.1014 9.4076 18.0962 9.4074 18.091 9.407C18.0858 9.4064 18.0804 9.4056 18.0754 9.4046C18.0702 9.4036 18.065 9.4024 18.06 9.4008C18.055 9.3992 18.05 9.3974 18.0452 9.3954C18.0402 9.3932 18.0356 9.391 18.031 9.3884C18.0264 9.3858 18.0218 9.383 18.0176 9.38C18.0132 9.377 18.009 9.3738 18.005 9.3704C18.001 9.3668 17.9972 9.3632 17.9936 9.3594C17.9902 9.3558 17.9868 9.352 17.9838 9.348C17.9808 9.3442 17.9778 9.34 17.9752 9.3358C17.9724 9.3316 17.97 9.3272 17.9678 9.3228C17.9656 9.3182 17.9636 9.3138 17.9618 9.309C17.96 9.3044 17.9584 9.2996 17.957 9.2948C17.9558 9.29 17.9546 9.285 17.9538 9.2802C17.953 9.2752 17.9524 9.2702 17.952 9.2652C17.9518 9.2602 17.9516 9.2552 17.9518 9.2502C17.9528 9.2194 17.9638 9.19 17.9818 9.165C17.8946 9.1112 17.811 9.053 17.7222 9.0018C17.6378 8.9532 17.55 8.9122 17.4644 8.8662C17.4382 8.9088 17.4056 8.9414 17.3552 8.953C17.3504 8.954 17.3454 8.9548 17.3406 8.9554C17.3356 8.9562 17.3308 8.9564 17.3258 8.9566C17.3208 8.9566 17.3158 8.9566 17.311 8.9562C17.306 8.9558 17.3012 8.9552 17.2962 8.9544C17.2914 8.9534 17.2866 8.9524 17.2818 8.951C17.277 8.9496 17.2724 8.948 17.2678 8.9462C17.2632 8.9444 17.2586 8.9424 17.2542 8.9402C17.2498 8.9378 17.2456 8.9354 17.2414 8.9326C17.2372 8.93 17.233 8.927 17.229 8.9238C17.225 8.9206 17.221 8.9172 17.2174 8.9136C17.2138 8.91 17.2102 8.9062 17.207 8.9024C17.2036 8.8984 17.2006 8.8944 17.1976 8.8902C17.1948 8.8858 17.192 8.8816 17.1896 8.877C17.1872 8.8726 17.1848 8.868 17.1828 8.8632C17.1808 8.8584 17.1792 8.8536 17.1776 8.8488C17.176 8.844 17.1748 8.839 17.1738 8.834C17.1672 8.8026 17.1722 8.778 17.18 8.7478C17.1214 8.7312 17.0644 8.7094 17.0062 8.6916C16.91 8.6616 16.8126 8.6366 16.7138 8.6164C16.679 8.609 16.6396 8.5966 16.6046 8.595C16.6 8.601 16.5992 8.605 16.5978 8.6122C16.5912 8.6442 16.5634 8.679 16.5364 8.6968C16.5322 8.6996 16.5278 8.7022 16.5232 8.7046C16.5188 8.707 16.514 8.7092 16.5094 8.7112C16.5046 8.7132 16.4998 8.7148 16.4948 8.7162C16.49 8.7178 16.485 8.719 16.48 8.72C16.475 8.7208 16.4698 8.7216 16.4648 8.722C16.4596 8.7226 16.4546 8.7228 16.4494 8.7228C16.4444 8.7226 16.4392 8.7224 16.4342 8.7218C16.429 8.7212 16.424 8.7206 16.419 8.7194C16.3814 8.7114 16.3436 8.6886 16.324 8.6548C16.305 8.6222 16.2988 8.5916 16.298 8.5542C16.175 8.5448 16.0516 8.5412 15.928 8.5432Z" fill="#02028F"/>
<path d="M15.9332 11.1878C15.908 11.0346 15.893 10.8784 15.8738 10.7244C15.8588 10.6058 15.8366 10.4834 15.8334 10.364C15.8316 10.3054 15.8382 10.2456 15.8418 10.187L15.8616 9.8756L15.9246 8.862L15.964 8.2438C15.9684 8.1768 15.9652 8.0604 15.982 8L15.987 8.0054C16.0038 8.083 15.9986 8.1684 16.0052 8.2476C16.023 8.4922 16.0388 8.7366 16.0524 8.9814L16.11 9.9034L16.1286 10.2002C16.132 10.2578 16.1384 10.317 16.1364 10.3746C16.1324 10.4892 16.1114 10.6066 16.0972 10.7206C16.0776 10.876 16.0614 11.0328 16.0366 11.1874C16.073 11.1882 16.1092 11.1936 16.1452 11.1982C16.1528 11.0602 16.1808 10.9182 16.1994 10.781C16.2168 10.6544 16.2262 10.5134 16.2568 10.39C16.2758 10.3132 16.3042 10.238 16.3294 10.163L16.4444 9.8194L16.8394 8.6402C16.856 8.5906 17.0094 8.1168 17.0206 8.1062L17.026 8.109C16.9816 8.2878 16.9542 8.4746 16.9178 8.6556L16.6718 9.876L16.5988 10.2406C16.5846 10.312 16.5738 10.3868 16.5536 10.4564C16.519 10.5746 16.4634 10.6906 16.417 10.8048C16.3598 10.9456 16.3072 11.0912 16.2422 11.2284C16.2602 11.2324 16.2778 11.2378 16.2948 11.2446C16.312 11.2514 16.3284 11.2594 16.3444 11.2686C16.4028 11.116 16.4688 10.9658 16.5318 10.8152C16.5718 10.7192 16.6078 10.6158 16.6562 10.524C16.6954 10.4498 16.7474 10.3794 16.7936 10.3094L17.0302 9.9518L17.6438 9.025C17.7632 8.8448 17.8868 8.6666 18 8.4826C17.9858 8.551 17.911 8.6792 17.8772 8.7482L17.563 9.3826L17.139 10.2396C17.0698 10.3796 16.9964 10.5502 16.9158 10.6814C16.8768 10.7452 16.8264 10.8046 16.781 10.8642L16.5406 11.1816C16.506 11.2272 16.4678 11.2718 16.4372 11.3202L16.4344 11.3246C16.466 11.3424 16.493 11.3624 16.5204 11.386C16.6214 11.2516 16.7238 11.118 16.827 10.9854C16.8894 10.9046 16.9492 10.818 17.0182 10.7432C17.0976 10.657 17.2232 10.5584 17.3134 10.4784L17.905 9.9542L18.5326 9.3994C18.6212 9.3212 18.7332 9.2058 18.8294 9.143C18.7502 9.2488 18.6342 9.3684 18.5452 9.47L17.9612 10.1356L17.4474 10.7196C17.3768 10.799 17.3108 10.8866 17.2336 10.9594C17.1608 11.0282 17.0738 11.0878 16.9948 11.1494C16.8614 11.2546 16.727 11.3584 16.5914 11.4608C16.6178 11.4872 16.6394 11.5154 16.6594 11.5468C16.7968 11.4386 16.9354 11.3318 17.0752 11.2266C17.153 11.1672 17.2302 11.102 17.3132 11.0504C17.4196 10.9842 17.5678 10.9208 17.6826 10.8636L18.423 10.4938L19.1146 10.1498C19.2228 10.0958 19.3588 10.0174 19.47 9.977C19.3702 10.0592 19.2348 10.1354 19.1248 10.2088C18.903 10.3594 18.6806 10.5086 18.457 10.6566L17.7744 11.1112C17.6728 11.1784 17.5712 11.259 17.4638 11.3162C17.3738 11.3642 17.2736 11.4 17.1794 11.4396C17.0238 11.506 16.8676 11.5716 16.711 11.636C16.729 11.6688 16.7426 11.7034 16.7518 11.7396C16.8744 11.6776 17.0074 11.6312 17.1346 11.5788C17.2568 11.5286 17.3814 11.4684 17.5074 11.43C17.6284 11.3932 17.762 11.376 17.8864 11.351L18.5962 11.2072L19.4404 11.0362C19.574 11.0092 19.7112 10.973 19.846 10.9552L19.85 10.9518L19.854 10.957C19.724 11.0124 19.5828 11.0518 19.4488 11.0974L18.6042 11.3818C18.3792 11.4594 18.1538 11.536 17.928 11.6112C17.8104 11.651 17.6896 11.6996 17.5686 11.7276C17.4774 11.7488 17.3796 11.7562 17.2868 11.769L16.7828 11.8376C16.7868 11.874 16.7896 11.9098 16.7912 11.9462C16.925 11.9192 17.0672 11.9098 17.2032 11.8924C17.3298 11.8762 17.4818 11.847 17.607 11.8446C17.7366 11.8422 17.871 11.8596 18.0006 11.8676L18.8358 11.9198L19.5816 11.9672C19.7188 11.9754 19.8644 11.9744 20 11.996C19.9042 12.013 19.8034 12.011 19.7066 12.0182L18.936 12.0682L18.0556 12.1236L17.7858 12.1404C17.7254 12.1444 17.6636 12.1508 17.603 12.149C17.4762 12.1448 17.3444 12.1198 17.2184 12.1036C17.0774 12.0856 16.9328 12.0738 16.7932 12.0478C16.7904 12.084 16.786 12.1194 16.7802 12.1554L17.4686 12.2504C17.5192 12.2576 17.5702 12.2644 17.6192 12.2794C17.7282 12.3122 17.8358 12.3518 17.9436 12.3882L18.5076 12.5784L19.8224 13.0228C19.8344 13.0268 19.849 13.0306 19.8566 13.0408C19.8298 13.043 19.6026 12.9898 19.55 12.9794L18.1746 12.7012L17.747 12.615C17.6704 12.5996 17.59 12.5878 17.515 12.5658C17.4068 12.5342 17.3004 12.483 17.1958 12.4402C17.048 12.3796 16.8974 12.322 16.752 12.256C16.7428 12.292 16.7278 12.3254 16.7102 12.358C16.8628 12.4162 17.0128 12.4836 17.1632 12.5472C17.26 12.5882 17.3648 12.6246 17.4572 12.6746C17.554 12.7268 17.645 12.795 17.7364 12.8562L18.2184 13.178L18.8972 13.631C19.0086 13.7054 19.1248 13.7758 19.2324 13.8554L19.2272 13.8574C19.2168 13.8602 19.2092 13.8568 19.1992 13.854C19.215 13.8712 19.2576 13.8808 19.2652 13.8998L19.2588 13.9014C19.2372 13.8874 19.2142 13.8774 19.193 13.863L19.1802 13.8628C19.1858 13.8684 19.1822 13.8654 19.1914 13.871L19.1892 13.8788C19.057 13.8216 18.928 13.7512 18.7992 13.6868L18.0888 13.3318L17.5744 13.0754C17.4812 13.029 17.3806 12.9862 17.2932 12.93C17.2224 12.8846 17.1562 12.8284 17.0894 12.7774C16.9456 12.6666 16.8014 12.5564 16.6566 12.447C16.6376 12.4798 16.619 12.5082 16.5902 12.5336C16.7194 12.624 16.8422 12.7258 16.9666 12.8226C17.0558 12.892 17.1542 12.9592 17.2362 13.037C17.3172 13.1138 17.3884 13.207 17.4624 13.2908L17.9428 13.8374L18.5776 14.5606C18.6602 14.6558 18.763 14.7618 18.8382 14.8586C18.7754 14.8224 18.6816 14.7266 18.6224 14.6742L18.1502 14.2558L17.384 13.5772L17.1578 13.3772C17.1128 13.3376 17.0654 13.299 17.024 13.2558C16.9302 13.1582 16.8408 13.026 16.7572 12.9174C16.6798 12.817 16.5882 12.7116 16.5192 12.607C16.494 12.6318 16.467 12.6538 16.4362 12.6714C16.4672 12.7272 16.515 12.7788 16.5538 12.8294L16.774 13.12C16.8224 13.1832 16.8766 13.2462 16.9176 13.3142C16.9658 13.3942 17.0048 13.482 17.0462 13.5658L17.2704 14.018C17.4612 14.403 17.6596 14.7856 17.8428 15.1742C17.82 15.1716 17.8042 15.1698 17.7824 15.1782C17.7586 15.1324 17.7232 15.0878 17.6944 15.0446L17.5184 14.7798L16.9574 13.9312C16.86 13.7836 16.7522 13.6372 16.6652 13.4836C16.6184 13.401 16.586 13.3068 16.5494 13.2192L16.3434 12.7262C16.3114 12.7434 16.278 12.756 16.244 12.7692C16.3084 12.9064 16.3614 13.0514 16.4186 13.192C16.4636 13.303 16.518 13.4162 16.5516 13.531C16.5682 13.5872 16.5774 13.647 16.5888 13.7046L16.6446 13.9844L16.8334 14.9212C16.8834 15.1646 16.932 15.4082 16.9792 15.6522C16.9954 15.7376 17.025 15.8286 17.03 15.915C16.9754 15.7792 16.9342 15.6332 16.8874 15.494L16.6056 14.6524L16.38 13.9786C16.3378 13.8528 16.2862 13.7238 16.2554 13.595C16.2282 13.4816 16.2196 13.3574 16.2038 13.2416C16.1836 13.094 16.1554 12.9428 16.146 12.7944C16.1106 12.802 16.074 12.8046 16.038 12.8082C16.0624 12.9414 16.0724 13.0814 16.0892 13.2158C16.1064 13.3524 16.1332 13.494 16.1366 13.6316C16.1394 13.7416 16.1244 13.8564 16.1176 13.9664L16.0756 14.6482L16.019 15.5528L16.0002 15.834C15.9974 15.8796 15.9982 15.9266 15.9932 15.9718C15.992 15.9816 15.9916 15.9934 15.9838 16L15.979 15.9944C15.973 15.9496 15.9732 15.9028 15.9706 15.8578L15.9548 15.6042L15.9028 14.7798L15.8566 14.033C15.8478 13.8962 15.8302 13.7536 15.8338 13.6168C15.837 13.484 15.8638 13.3454 15.8804 13.2136C15.8974 13.0794 15.907 12.9398 15.9336 12.8074C15.8978 12.805 15.8626 12.801 15.8268 12.7958L15.7564 13.3166C15.7442 13.4064 15.7372 13.5022 15.7164 13.5904C15.692 13.6934 15.6522 13.7948 15.6186 13.8954L15.4382 14.4336L14.951 15.885C14.9456 15.868 14.9528 15.841 14.956 15.8234C15.0506 15.3216 15.1566 14.8214 15.2572 14.3208L15.3602 13.8086C15.3786 13.7168 15.3924 13.6198 15.4186 13.5298C15.447 13.4326 15.492 13.3378 15.5302 13.2438C15.5942 13.0844 15.6594 12.9254 15.7256 12.767C15.6906 12.7568 15.6586 12.7418 15.6256 12.7264L15.4246 13.2098C15.3884 13.2968 15.356 13.3906 15.3112 13.4732C15.2644 13.5596 15.2042 13.642 15.1498 13.724L14.8624 14.1588L13.9854 15.484L13.9822 15.4826C13.9956 15.4198 14.095 15.242 14.1276 15.176L14.4842 14.4552L14.8522 13.7116C14.9168 13.581 14.9758 13.4404 15.052 13.3164C15.087 13.2592 15.1312 13.2064 15.1718 13.1528L15.3972 12.8552C15.4418 12.7966 15.4906 12.7386 15.531 12.677L15.534 12.6722C15.5042 12.652 15.4762 12.6324 15.4514 12.606C15.3504 12.74 15.2484 12.873 15.1454 13.0054C15.0834 13.0858 15.0234 13.1736 14.9542 13.248C14.9126 13.2926 14.8644 13.3322 14.8188 13.3726L14.6022 13.564L13.8634 14.2184L13.3576 14.6652C13.2884 14.7258 13.2182 14.8018 13.1416 14.8518C13.2356 14.7284 13.3464 14.614 13.4488 14.4972L14.0492 13.813L14.5332 13.2626C14.6012 13.186 14.6656 13.0998 14.7406 13.0302C14.7946 12.98 14.8576 12.936 14.916 12.8908C15.0694 12.7716 15.2306 12.6564 15.3782 12.5304C15.3504 12.5052 15.3316 12.4784 15.3114 12.447C15.2072 12.539 15.087 12.6204 14.9762 12.7048C14.8734 12.783 14.7714 12.8718 14.6618 12.9396C14.578 12.9912 14.484 13.0318 14.396 13.0758L13.9156 13.3154C13.4462 13.5496 12.9786 13.7884 12.5062 14.0166C12.5662 13.9574 12.6802 13.8938 12.754 13.8444L13.2582 13.5066L14.1016 12.9442C14.2318 12.8576 14.3796 12.7476 14.5146 12.6734C14.606 12.623 14.7108 12.5876 14.8072 12.547C14.957 12.484 15.1058 12.4166 15.2576 12.3594C15.243 12.3254 15.2296 12.2912 15.2172 12.2564C15.1052 12.3112 14.9844 12.3536 14.869 12.4014C14.7372 12.4562 14.596 12.524 14.4602 12.5648C14.3654 12.5934 14.2634 12.6082 14.1664 12.6278L13.6344 12.7352C13.125 12.838 12.6162 12.9472 12.1054 13.043C12.1918 12.9958 12.3246 12.963 12.4196 12.9312L13.0198 12.7284L13.9046 12.4298L14.2074 12.3272C14.264 12.3082 14.321 12.286 14.3792 12.272C14.4896 12.2452 14.6092 12.2362 14.722 12.221C14.8774 12.1998 15.0332 12.1742 15.1892 12.158C15.183 12.1212 15.18 12.086 15.1792 12.0486C15.036 12.0746 14.888 12.0876 14.7438 12.106C14.6208 12.1216 14.4926 12.1456 14.3686 12.1488C14.3092 12.1504 14.2486 12.1438 14.1892 12.14L13.881 12.1202L12.9364 12.0612L12.294 12.019C12.2144 12.014 12.0716 12.0156 12.0018 11.999L12 11.9934C12.0314 11.9826 12.2562 11.9766 12.3038 11.9734L13.6434 11.8888L14.117 11.8588C14.1966 11.8536 14.2796 11.8424 14.3592 11.8446C14.4618 11.8474 14.5662 11.8664 14.668 11.8792L15.1778 11.945C15.1796 11.9074 15.1832 11.872 15.19 11.835C15.0468 11.8264 14.8998 11.7978 14.7576 11.7782C14.6354 11.7614 14.5048 11.7532 14.3852 11.7236C14.3242 11.7086 14.2636 11.6852 14.204 11.6652L13.8596 11.5486L12.695 11.1554L12.3142 11.0262C12.2478 11.0036 12.1816 10.9782 12.1142 10.9592L12.1192 10.958L12.1084 10.9576L12.1172 10.9564L12.1142 10.9518C12.147 10.9654 12.2302 10.9752 12.2712 10.9838L12.7998 11.0898L13.9344 11.3206L14.2648 11.3866C14.327 11.3988 14.3914 11.409 14.4524 11.4268C14.5678 11.4606 14.6816 11.5154 14.793 11.561C14.9342 11.619 15.0792 11.6732 15.2174 11.7382C15.2266 11.7026 15.242 11.6688 15.2598 11.6368C15.1052 11.5744 14.952 11.5078 14.7984 11.443C14.7024 11.4026 14.5998 11.366 14.5082 11.3162C14.4304 11.274 14.3562 11.2184 14.2824 11.169L13.8886 10.9062L12.4938 9.9756C12.571 9.9952 12.6532 10.0498 12.726 10.0852L13.3896 10.4158L14.225 10.8334L14.5 10.9702C14.5548 10.9976 14.6122 11.0234 14.6644 11.0554C14.7462 11.1056 14.8226 11.1714 14.899 11.23L15.3138 11.5462C15.333 11.5152 15.3518 11.4862 15.377 11.4594C15.258 11.3768 15.1448 11.2802 15.0302 11.1912C14.9344 11.1168 14.8272 11.0444 14.7398 10.9612C14.6894 10.9134 14.6454 10.8592 14.5996 10.8072L14.3754 10.5512L13.654 9.73L13.2786 9.3014C13.2416 9.2586 13.1892 9.2126 13.1616 9.1636L13.1662 9.1616C13.203 9.1854 13.2336 9.2204 13.2664 9.2496C13.312 9.29 13.359 9.3288 13.4046 9.3696L13.849 9.7628L14.5762 10.4068C14.6964 10.513 14.8566 10.6412 14.9628 10.7542C15.0336 10.8298 15.094 10.922 15.1572 11.0046C15.255 11.1328 15.3568 11.2582 15.4526 11.3882C15.4764 11.3612 15.5038 11.3422 15.5332 11.322C15.5048 11.2684 15.457 11.2166 15.42 11.168L15.186 10.8594C15.141 10.8 15.0912 10.7414 15.0522 10.6778C14.978 10.5568 14.9198 10.4192 14.8566 10.2918L14.5024 9.5762L14.1452 8.8534C14.0872 8.736 14.0144 8.6096 13.9672 8.4884C14.02 8.5466 14.0582 8.6236 14.1024 8.6888C14.2292 8.8764 14.3548 9.0648 14.4792 9.2542L15.031 10.0884C15.1212 10.225 15.2378 10.3818 15.3138 10.5234C15.3676 10.6236 15.406 10.739 15.4498 10.8444C15.5084 10.9862 15.5734 11.1266 15.6258 11.2708L15.6392 11.2636C15.6676 11.2482 15.6956 11.2364 15.7256 11.2252C15.6644 11.093 15.6138 10.9532 15.5586 10.8182C15.5102 10.6994 15.4514 10.577 15.4162 10.454C15.3978 10.3886 15.3882 10.3194 15.3748 10.2526L15.2982 9.872L15.0582 8.681C15.0486 8.634 14.9422 8.1202 14.944 8.1096L14.9506 8.1116C14.982 8.164 15.0114 8.2932 15.0326 8.358C15.0422 8.3872 15.0556 8.415 15.0656 8.4442L15.195 8.8342L15.5374 9.8562L15.6474 10.1838C15.6708 10.2542 15.6972 10.3244 15.7146 10.3966C15.743 10.514 15.7514 10.6436 15.7678 10.7636C15.7874 10.9068 15.816 11.0552 15.8234 11.1994C15.8602 11.1928 15.8962 11.1894 15.9332 11.1878Z" fill="#02028F"/>
</g>
</g>
</g>
<defs>
<filter id="filter0_d_42_1806" x="-8" y="-6" width="48" height="40" filterUnits="userSpaceOnUse" color-interpolation-filters="sRGB">
<feFlood flood-opacity="0" result="BackgroundImageFix"/>
<feColorMatrix in="SourceAlpha" type="matrix" values="0 0 0 0 0 0 0 0 0 0 0 0 0 0 0 0 0 0 127 0" result="hardAlpha"/>
<feOffset dy="2"/>
<feGaussianBlur stdDeviation="4"/>
<feColorMatrix type="matrix" values="0 0 0 0 0 0 0 0 0 0 0 0 0 0 0 0 0 0 0.06 0"/>
<feBlend mode="normal" in2="BackgroundImageFix" result="effect1_dropShadow_42_1806"/>
<feBlend mode="normal" in="SourceGraphic" in2="effect1_dropShadow_42_1806" result="shape"/>
</filter>
<clipPath id="clip0_42_1806">
<rect width="32" height="24" fill="white"/>
</clipPath>
</defs>
</svg>
