<svg width="16" height="16" viewBox="0 0 16 16" fill="none" xmlns="http://www.w3.org/2000/svg">
<g clip-path="url(#clip0_41_1741)">
<g filter="url(#filter0_d_41_1741)">
<rect width="16" height="16" rx="8" fill="#0077B5"/>
<path d="M8.41667 11.75H6.75V6.75H8.41667V7.58333C8.77193 7.13136 9.31068 6.86191 9.88542 6.84875C10.919 6.85449 11.753 7.69557 11.75 8.72917V11.75H10.0833V8.9375C10.0167 8.47193 9.6174 8.12649 9.14708 8.1275C8.94137 8.134 8.74718 8.22407 8.60935 8.37693C8.47152 8.52978 8.40194 8.73221 8.41667 8.9375V11.75ZM5.91667 11.75H4.25V6.75H5.91667V11.75ZM5.08333 5.91667C4.6231 5.91667 4.25 5.54357 4.25 5.08333C4.25 4.6231 4.6231 4.25 5.08333 4.25C5.54357 4.25 5.91667 4.6231 5.91667 5.08333C5.91667 5.30435 5.82887 5.51631 5.67259 5.67259C5.51631 5.82887 5.30435 5.91667 5.08333 5.91667Z" fill="white"/>
</g>
</g>
<defs>
<filter id="filter0_d_41_1741" x="-8" y="-6" width="32" height="32" filterUnits="userSpaceOnUse" color-interpolation-filters="sRGB">
<feFlood flood-opacity="0" result="BackgroundImageFix"/>
<feColorMatrix in="SourceAlpha" type="matrix" values="0 0 0 0 0 0 0 0 0 0 0 0 0 0 0 0 0 0 127 0" result="hardAlpha"/>
<feOffset dy="2"/>
<feGaussianBlur stdDeviation="4"/>
<feColorMatrix type="matrix" values="0 0 0 0 0 0 0 0 0 0 0 0 0 0 0 0 0 0 0.06 0"/>
<feBlend mode="normal" in2="BackgroundImageFix" result="effect1_dropShadow_41_1741"/>
<feBlend mode="normal" in="SourceGraphic" in2="effect1_dropShadow_41_1741" result="shape"/>
</filter>
<clipPath id="clip0_41_1741">
<rect width="16" height="16" fill="white"/>
</clipPath>
</defs>
</svg>
