<svg width="10" height="11" viewBox="0 0 10 11" fill="none" xmlns="http://www.w3.org/2000/svg">
<path d="M5.00004 9.25001C4.47376 8.8011 3.98595 8.30897 3.54171 7.77876C2.87504 6.98251 2.08337 5.79667 2.08337 4.66667C2.08278 3.48648 2.79348 2.42225 3.88382 1.97059C4.97416 1.51892 6.22924 1.76886 7.06338 2.60376C7.6119 3.14984 7.91917 3.89267 7.91672 4.66667C7.91672 5.79667 7.12504 6.98251 6.45837 7.77876C6.01413 8.30897 5.52632 8.8011 5.00004 9.25001ZM5.00004 3.41667C4.55346 3.41667 4.1408 3.65492 3.91751 4.04167C3.69422 4.42842 3.69422 4.90492 3.91751 5.29167C4.1408 5.67842 4.55346 5.91667 5.00004 5.91667C5.6904 5.91667 6.25004 5.35703 6.25004 4.66667C6.25004 3.97632 5.6904 3.41667 5.00004 3.41667Z" fill="#79819A"/>
</svg>
