<svg width="32" height="32" viewBox="0 0 32 32" fill="none" xmlns="http://www.w3.org/2000/svg">
<path d="M16 32C24.8366 32 32 24.8366 32 16C32 7.16344 24.8366 0 16 0C7.16344 0 0 7.16344 0 16C0 24.8366 7.16344 32 16 32Z" fill="#1C873B"/>
<path d="M16.3297 5.33229C14.8625 5.3294 13.4092 5.61493 12.0522 6.17265C10.7516 6.70496 9.56504 7.48154 8.55671 8.46039C7.55432 9.42484 6.75083 10.5765 6.19171 11.8502C5.62114 13.159 5.32666 14.5714 5.32666 15.9992C5.32666 17.427 5.62114 18.8394 6.19171 20.1482C6.75061 21.4225 7.55412 22.5747 8.55671 23.5396C9.56504 24.5185 10.7516 25.295 12.0522 25.8274C13.7766 26.5326 15.6489 26.7999 17.5018 26.6054C19.3547 26.4109 21.1306 25.7606 22.671 24.7127C23.5646 24.0984 24.3617 23.3545 25.036 22.5053C25.7119 21.6572 26.2542 20.7108 26.6442 19.6989C25.7079 19.6298 24.8307 19.215 24.183 18.5353C23.5378 17.8623 23.1786 16.9653 23.1809 16.0329C23.1833 15.1006 23.547 14.2054 24.1957 13.5357C24.8472 12.8535 25.7287 12.4372 26.6694 12.3674C26.2848 11.3489 25.7462 10.3955 25.0723 9.5404C24.3991 8.68483 23.6019 7.93449 22.7073 7.31416C20.8346 6.01588 18.6083 5.32407 16.3297 5.33229ZM16.3044 23.598C15.2858 23.6308 14.2709 23.4585 13.3201 23.0913C12.3693 22.7241 11.5021 22.1695 10.7699 21.4605C10.0377 20.7515 9.45547 19.9026 9.05786 18.9641C8.66026 18.0257 8.45537 17.0169 8.45537 15.9976C8.45537 14.9784 8.66026 13.9696 9.05786 13.0312C9.45547 12.0927 10.0377 11.2437 10.7699 10.5348C11.5021 9.82576 12.3693 9.27119 13.3201 8.904C14.2709 8.53682 15.2858 8.36451 16.3044 8.39732C17.4172 8.39374 18.5184 8.62307 19.5372 9.07056C20.556 9.51806 21.4699 10.1738 22.2201 10.9957C21.5101 11.6157 20.94 12.3796 20.5475 13.2366C20.155 14.0936 19.9491 15.0243 19.9434 15.9669C19.9491 16.9174 20.1546 17.8561 20.5465 18.722C20.9385 19.5879 21.5081 20.3618 22.2185 20.9933C21.4925 21.805 20.6047 22.4559 19.6123 22.9042C18.5717 23.3688 17.444 23.6043 16.3044 23.598Z" fill="white"/>
</svg>
