<svg width="10" height="11" viewBox="0 0 10 11" fill="none" xmlns="http://www.w3.org/2000/svg">
<path d="M7.91558 8.83333C4.36074 8.83837 1.66283 6.10813 1.66663 2.58438C1.66663 2.35427 1.85318 2.16667 2.0833 2.16667H3.18303C3.38952 2.16667 3.56493 2.31839 3.59525 2.52264C3.66792 3.01217 3.81045 3.48874 4.01849 3.9378L4.06131 4.03022C4.12085 4.15872 4.08049 4.3114 3.96524 4.3937C3.62467 4.63692 3.49451 5.12649 3.75983 5.50849C4.09278 5.98785 4.51248 6.40746 4.99174 6.74026C5.37372 7.00551 5.86321 6.87537 6.10642 6.53486C6.18878 6.41955 6.34155 6.37917 6.47012 6.43873L6.56212 6.48135C7.0112 6.68938 7.48781 6.83191 7.97739 6.90457C8.18164 6.93488 8.33329 7.11029 8.33329 7.31678V8.41666C8.33329 8.64678 8.14629 8.83333 7.91617 8.83333L7.91558 8.83333Z" fill="#79819A"/>
</svg>
